@startuml
    skinparam {
    }
    title
        <font color=Maroon size=18>Inheritance map for GROUND_freeW_seb_snow</font>
    end title
    class BASE <<(H,#E6FFE6)>> [[matlab:matlab.desktop.editor.openAndGoToLine('C:\thin\02_Code\Matlab\CryoGRID\202008_CryoGrid_NewOOP_GIT_CURRENT_THIN\modules\TIER_0_base\BASE.m',6);{No tooltip}]] {
        {field} + class_index [[[matlab:matlab.desktop.editor.openAndGoToLine('C:\thin\02_Code\Matlab\CryoGRID\202008_CryoGrid_NewOOP_GIT_CURRENT_THIN\modules\TIER_0_base\BASE.m',9);{No tooltip}]]]
        {field} + CONST [[[matlab:matlab.desktop.editor.openAndGoToLine('C:\thin\02_Code\Matlab\CryoGRID\202008_CryoGrid_NewOOP_GIT_CURRENT_THIN\modules\TIER_0_base\BASE.m',10);{No tooltip}]]]
        {field} + IA_NEXT [[[matlab:matlab.desktop.editor.openAndGoToLine('C:\thin\02_Code\Matlab\CryoGRID\202008_CryoGrid_NewOOP_GIT_CURRENT_THIN\modules\TIER_0_base\BASE.m',17);{No tooltip}]]]
        {field} + IA_PREVIOUS [[[matlab:matlab.desktop.editor.openAndGoToLine('C:\thin\02_Code\Matlab\CryoGRID\202008_CryoGrid_NewOOP_GIT_CURRENT_THIN\modules\TIER_0_base\BASE.m',16);{No tooltip}]]]
        {field} + NEXT [[[matlab:matlab.desktop.editor.openAndGoToLine('C:\thin\02_Code\Matlab\CryoGRID\202008_CryoGrid_NewOOP_GIT_CURRENT_THIN\modules\TIER_0_base\BASE.m',15);{No tooltip}]]]
        {field} + PARA [[[matlab:matlab.desktop.editor.openAndGoToLine('C:\thin\02_Code\Matlab\CryoGRID\202008_CryoGrid_NewOOP_GIT_CURRENT_THIN\modules\TIER_0_base\BASE.m',11);{No tooltip}]]]
        {field} + PREVIOUS [[[matlab:matlab.desktop.editor.openAndGoToLine('C:\thin\02_Code\Matlab\CryoGRID\202008_CryoGrid_NewOOP_GIT_CURRENT_THIN\modules\TIER_0_base\BASE.m',14);{No tooltip}]]]
        {field} + STATVAR [[[matlab:matlab.desktop.editor.openAndGoToLine('C:\thin\02_Code\Matlab\CryoGRID\202008_CryoGrid_NewOOP_GIT_CURRENT_THIN\modules\TIER_0_base\BASE.m',12);{No tooltip}]]]
        {field} + TEMP [[[matlab:matlab.desktop.editor.openAndGoToLine('C:\thin\02_Code\Matlab\CryoGRID\202008_CryoGrid_NewOOP_GIT_CURRENT_THIN\modules\TIER_0_base\BASE.m',13);{No tooltip}]]]
        ---
        {method} + get_saturated_hardBottom_first_cell  [[[matlab:matlab.desktop.editor.openAndGoToFunction('C:\thin\02_Code\Matlab\CryoGRID\202008_CryoGrid_NewOOP_GIT_CURRENT_THIN\modules\TIER_0_base\BASE.m','get_saturated_hardBottom_first_cell');{No tooltip}]]]
        {method} + initialize_excel  [[[matlab:matlab.desktop.editor.openAndGoToFunction('C:\thin\02_Code\Matlab\CryoGRID\202008_CryoGrid_NewOOP_GIT_CURRENT_THIN\modules\TIER_0_base\BASE.m','initialize_excel');{No tooltip}]]]
        {method} + lateral3D_pull_heat  [[[matlab:matlab.desktop.editor.openAndGoToFunction('C:\thin\02_Code\Matlab\CryoGRID\202008_CryoGrid_NewOOP_GIT_CURRENT_THIN\modules\TIER_0_base\BASE.m','lateral3D_pull_heat');{No tooltip}]]]
        {method} + lateral3D_pull_water_general_aquifer  [[[matlab:matlab.desktop.editor.openAndGoToFunction('C:\thin\02_Code\Matlab\CryoGRID\202008_CryoGrid_NewOOP_GIT_CURRENT_THIN\modules\TIER_0_base\BASE.m','lateral3D_pull_water_general_aquifer');{No tooltip}]]]
        {method} + lateral3D_pull_water_unconfined_aquifer  [[[matlab:matlab.desktop.editor.openAndGoToFunction('C:\thin\02_Code\Matlab\CryoGRID\202008_CryoGrid_NewOOP_GIT_CURRENT_THIN\modules\TIER_0_base\BASE.m','lateral3D_pull_water_unconfined_aquifer');{No tooltip}]]]
        {method} + lateral3D_push_heat  [[[matlab:matlab.desktop.editor.openAndGoToFunction('C:\thin\02_Code\Matlab\CryoGRID\202008_CryoGrid_NewOOP_GIT_CURRENT_THIN\modules\TIER_0_base\BASE.m','lateral3D_push_heat');{No tooltip}]]]
        {method} + lateral3D_push_water_general_aquifer  [[[matlab:matlab.desktop.editor.openAndGoToFunction('C:\thin\02_Code\Matlab\CryoGRID\202008_CryoGrid_NewOOP_GIT_CURRENT_THIN\modules\TIER_0_base\BASE.m','lateral3D_push_water_general_aquifer');{No tooltip}]]]
        {method} + lateral3D_push_water_unconfined_aquifer  [[[matlab:matlab.desktop.editor.openAndGoToFunction('C:\thin\02_Code\Matlab\CryoGRID\202008_CryoGrid_NewOOP_GIT_CURRENT_THIN\modules\TIER_0_base\BASE.m','lateral3D_push_water_unconfined_aquifer');{No tooltip}]]]
        {method} + lateral_push_remove_subsurfaceWater  [[[matlab:matlab.desktop.editor.openAndGoToFunction('C:\thin\02_Code\Matlab\CryoGRID\202008_CryoGrid_NewOOP_GIT_CURRENT_THIN\modules\TIER_0_base\BASE.m','lateral_push_remove_subsurfaceWater');{No tooltip}]]]
        {method} + lateral_push_remove_surfaceWater  [[[matlab:matlab.desktop.editor.openAndGoToFunction('C:\thin\02_Code\Matlab\CryoGRID\202008_CryoGrid_NewOOP_GIT_CURRENT_THIN\modules\TIER_0_base\BASE.m','lateral_push_remove_surfaceWater');{No tooltip}]]]
        {method} + lateral_push_remove_water_seepage  [[[matlab:matlab.desktop.editor.openAndGoToFunction('C:\thin\02_Code\Matlab\CryoGRID\202008_CryoGrid_NewOOP_GIT_CURRENT_THIN\modules\TIER_0_base\BASE.m','lateral_push_remove_water_seepage');{No tooltip}]]]
        {method} + lateral_push_water_reservoir  [[[matlab:matlab.desktop.editor.openAndGoToFunction('C:\thin\02_Code\Matlab\CryoGRID\202008_CryoGrid_NewOOP_GIT_CURRENT_THIN\modules\TIER_0_base\BASE.m','lateral_push_water_reservoir');{No tooltip}]]]
    }
    class GROUND_freeW_seb <<(H,#E6FFE6)>> [[matlab:matlab.desktop.editor.openAndGoToLine('C:\thin\02_Code\Matlab\CryoGRID\202008_CryoGrid_NewOOP_GIT_CURRENT_THIN\modules\TIER_2_full_classes\GROUND_freeW_seb.m',7);{No tooltip}]] {
        ---
        {method} + advance_prognostic  [[[matlab:matlab.desktop.editor.openAndGoToFunction('C:\thin\02_Code\Matlab\CryoGRID\202008_CryoGrid_NewOOP_GIT_CURRENT_THIN\modules\TIER_2_full_classes\GROUND_freeW_seb.m','advance_prognostic');{No tooltip}]]]
        {method} + check_trigger  [[[matlab:matlab.desktop.editor.openAndGoToFunction('C:\thin\02_Code\Matlab\CryoGRID\202008_CryoGrid_NewOOP_GIT_CURRENT_THIN\modules\TIER_2_full_classes\GROUND_freeW_seb.m','check_trigger');{do nothing}]]]
        {method} + compute_diagnostic  [[[matlab:matlab.desktop.editor.openAndGoToFunction('C:\thin\02_Code\Matlab\CryoGRID\202008_CryoGrid_NewOOP_GIT_CURRENT_THIN\modules\TIER_2_full_classes\GROUND_freeW_seb.m','compute_diagnostic');{No tooltip}]]]
        {method} + compute_diagnostic_first_cell  [[[matlab:matlab.desktop.editor.openAndGoToFunction('C:\thin\02_Code\Matlab\CryoGRID\202008_CryoGrid_NewOOP_GIT_CURRENT_THIN\modules\TIER_2_full_classes\GROUND_freeW_seb.m','compute_diagnostic_first_cell');{No tooltip}]]]
        {method} + conductivity  [[[matlab:matlab.desktop.editor.openAndGoToFunction('C:\thin\02_Code\Matlab\CryoGRID\202008_CryoGrid_NewOOP_GIT_CURRENT_THIN\modules\TIER_2_full_classes\GROUND_freeW_seb.m','conductivity');{No tooltip}]]]
        {method} + finalize_init  [[[matlab:matlab.desktop.editor.openAndGoToFunction('C:\thin\02_Code\Matlab\CryoGRID\202008_CryoGrid_NewOOP_GIT_CURRENT_THIN\modules\TIER_2_full_classes\GROUND_freeW_seb.m','finalize_init');{No tooltip}]]]
        {method} + get_boundary_condition_l  [[[matlab:matlab.desktop.editor.openAndGoToFunction('C:\thin\02_Code\Matlab\CryoGRID\202008_CryoGrid_NewOOP_GIT_CURRENT_THIN\modules\TIER_2_full_classes\GROUND_freeW_seb.m','get_boundary_condition_l');{No tooltip}]]]
        {method} + get_boundary_condition_u  [[[matlab:matlab.desktop.editor.openAndGoToFunction('C:\thin\02_Code\Matlab\CryoGRID\202008_CryoGrid_NewOOP_GIT_CURRENT_THIN\modules\TIER_2_full_classes\GROUND_freeW_seb.m','get_boundary_condition_u');{No tooltip}]]]
        {method} + get_derivatives_prognostic  [[[matlab:matlab.desktop.editor.openAndGoToFunction('C:\thin\02_Code\Matlab\CryoGRID\202008_CryoGrid_NewOOP_GIT_CURRENT_THIN\modules\TIER_2_full_classes\GROUND_freeW_seb.m','get_derivatives_prognostic');{No tooltip}]]]
        {method} + get_timestep  [[[matlab:matlab.desktop.editor.openAndGoToFunction('C:\thin\02_Code\Matlab\CryoGRID\202008_CryoGrid_NewOOP_GIT_CURRENT_THIN\modules\TIER_2_full_classes\GROUND_freeW_seb.m','get_timestep');{No tooltip}]]]
        {method} + lateral3D_pull_heat  [[[matlab:matlab.desktop.editor.openAndGoToFunction('C:\thin\02_Code\Matlab\CryoGRID\202008_CryoGrid_NewOOP_GIT_CURRENT_THIN\modules\TIER_2_full_classes\GROUND_freeW_seb.m','lateral3D_pull_heat');{No tooltip}]]]
        {method} + lateral3D_push_heat  [[[matlab:matlab.desktop.editor.openAndGoToFunction('C:\thin\02_Code\Matlab\CryoGRID\202008_CryoGrid_NewOOP_GIT_CURRENT_THIN\modules\TIER_2_full_classes\GROUND_freeW_seb.m','lateral3D_push_heat');{No tooltip}]]]
        {method} + penetrate_SW  [[[matlab:matlab.desktop.editor.openAndGoToFunction('C:\thin\02_Code\Matlab\CryoGRID\202008_CryoGrid_NewOOP_GIT_CURRENT_THIN\modules\TIER_2_full_classes\GROUND_freeW_seb.m','penetrate_SW');{No tooltip}]]]
        {method} + provide_CONST  [[[matlab:matlab.desktop.editor.openAndGoToFunction('C:\thin\02_Code\Matlab\CryoGRID\202008_CryoGrid_NewOOP_GIT_CURRENT_THIN\modules\TIER_2_full_classes\GROUND_freeW_seb.m','provide_CONST');{No tooltip}]]]
        {method} + provide_PARA  [[[matlab:matlab.desktop.editor.openAndGoToFunction('C:\thin\02_Code\Matlab\CryoGRID\202008_CryoGrid_NewOOP_GIT_CURRENT_THIN\modules\TIER_2_full_classes\GROUND_freeW_seb.m','provide_PARA');{No tooltip}]]]
        {method} + provide_STATVAR  [[[matlab:matlab.desktop.editor.openAndGoToFunction('C:\thin\02_Code\Matlab\CryoGRID\202008_CryoGrid_NewOOP_GIT_CURRENT_THIN\modules\TIER_2_full_classes\GROUND_freeW_seb.m','provide_STATVAR');{No tooltip}]]]
        {method} + surface_energy_balance  [[[matlab:matlab.desktop.editor.openAndGoToFunction('C:\thin\02_Code\Matlab\CryoGRID\202008_CryoGrid_NewOOP_GIT_CURRENT_THIN\modules\TIER_2_full_classes\GROUND_freeW_seb.m','surface_energy_balance');{No tooltip}]]]
    }
    class GROUND_freeW_seb_snow <<(H,#E6FFE6)>> [[matlab:matlab.desktop.editor.openAndGoToLine('C:\thin\02_Code\Matlab\CryoGRID\202008_CryoGrid_NewOOP_GIT_CURRENT_THIN\modules\TIER_3_snow\GROUND_freeW_seb_snow.m',7);{No tooltip}]] {
        {field} + CHILD [[[matlab:matlab.desktop.editor.openAndGoToLine('C:\thin\02_Code\Matlab\CryoGRID\202008_CryoGrid_NewOOP_GIT_CURRENT_THIN\modules\TIER_3_snow\GROUND_freeW_seb_snow.m',9);{No tooltip}]]]
        {field} + IA_CHILD [[[matlab:matlab.desktop.editor.openAndGoToLine('C:\thin\02_Code\Matlab\CryoGRID\202008_CryoGrid_NewOOP_GIT_CURRENT_THIN\modules\TIER_3_snow\GROUND_freeW_seb_snow.m',10);{No tooltip}]]]
        ---
        {method} + advance_prognostic  [[[matlab:matlab.desktop.editor.openAndGoToFunction('C:\thin\02_Code\Matlab\CryoGRID\202008_CryoGrid_NewOOP_GIT_CURRENT_THIN\modules\TIER_3_snow\GROUND_freeW_seb_snow.m','advance_prognostic');{No tooltip}]]]
        {method} + check_trigger  [[[matlab:matlab.desktop.editor.openAndGoToFunction('C:\thin\02_Code\Matlab\CryoGRID\202008_CryoGrid_NewOOP_GIT_CURRENT_THIN\modules\TIER_3_snow\GROUND_freeW_seb_snow.m','check_trigger');{No tooltip}]]]
        {method} + compute_diagnostic  [[[matlab:matlab.desktop.editor.openAndGoToFunction('C:\thin\02_Code\Matlab\CryoGRID\202008_CryoGrid_NewOOP_GIT_CURRENT_THIN\modules\TIER_3_snow\GROUND_freeW_seb_snow.m','compute_diagnostic');{No tooltip}]]]
        {method} + compute_diagnostic_first_cell  [[[matlab:matlab.desktop.editor.openAndGoToFunction('C:\thin\02_Code\Matlab\CryoGRID\202008_CryoGrid_NewOOP_GIT_CURRENT_THIN\modules\TIER_3_snow\GROUND_freeW_seb_snow.m','compute_diagnostic_first_cell');{No tooltip}]]]
        {method} + finalize_init  [[[matlab:matlab.desktop.editor.openAndGoToFunction('C:\thin\02_Code\Matlab\CryoGRID\202008_CryoGrid_NewOOP_GIT_CURRENT_THIN\modules\TIER_3_snow\GROUND_freeW_seb_snow.m','finalize_init');{No tooltip}]]]
        {method} + get_boundary_condition_l  [[[matlab:matlab.desktop.editor.openAndGoToFunction('C:\thin\02_Code\Matlab\CryoGRID\202008_CryoGrid_NewOOP_GIT_CURRENT_THIN\modules\TIER_3_snow\GROUND_freeW_seb_snow.m','get_boundary_condition_l');{No tooltip}]]]
        {method} + get_boundary_condition_u  [[[matlab:matlab.desktop.editor.openAndGoToFunction('C:\thin\02_Code\Matlab\CryoGRID\202008_CryoGrid_NewOOP_GIT_CURRENT_THIN\modules\TIER_3_snow\GROUND_freeW_seb_snow.m','get_boundary_condition_u');{No tooltip}]]]
        {method} + get_derivatives_prognostic  [[[matlab:matlab.desktop.editor.openAndGoToFunction('C:\thin\02_Code\Matlab\CryoGRID\202008_CryoGrid_NewOOP_GIT_CURRENT_THIN\modules\TIER_3_snow\GROUND_freeW_seb_snow.m','get_derivatives_prognostic');{No tooltip}]]]
        {method} + get_timestep  [[[matlab:matlab.desktop.editor.openAndGoToFunction('C:\thin\02_Code\Matlab\CryoGRID\202008_CryoGrid_NewOOP_GIT_CURRENT_THIN\modules\TIER_3_snow\GROUND_freeW_seb_snow.m','get_timestep');{No tooltip}]]]
        {method} + penetrate_SW  [[[matlab:matlab.desktop.editor.openAndGoToFunction('C:\thin\02_Code\Matlab\CryoGRID\202008_CryoGrid_NewOOP_GIT_CURRENT_THIN\modules\TIER_3_snow\GROUND_freeW_seb_snow.m','penetrate_SW');{No tooltip}]]]
        {method} + provide_CONST  [[[matlab:matlab.desktop.editor.openAndGoToFunction('C:\thin\02_Code\Matlab\CryoGRID\202008_CryoGrid_NewOOP_GIT_CURRENT_THIN\modules\TIER_3_snow\GROUND_freeW_seb_snow.m','provide_CONST');{No tooltip}]]]
        {method} + provide_PARA  [[[matlab:matlab.desktop.editor.openAndGoToFunction('C:\thin\02_Code\Matlab\CryoGRID\202008_CryoGrid_NewOOP_GIT_CURRENT_THIN\modules\TIER_3_snow\GROUND_freeW_seb_snow.m','provide_PARA');{No tooltip}]]]
        {method} + provide_STATVAR  [[[matlab:matlab.desktop.editor.openAndGoToFunction('C:\thin\02_Code\Matlab\CryoGRID\202008_CryoGrid_NewOOP_GIT_CURRENT_THIN\modules\TIER_3_snow\GROUND_freeW_seb_snow.m','provide_STATVAR');{No tooltip}]]]
    }
    class HEAT_CONDUCTION <<(H,#E6FFE6)>> [[matlab:matlab.desktop.editor.openAndGoToLine('C:\thin\02_Code\Matlab\CryoGRID\202008_CryoGrid_NewOOP_GIT_CURRENT_THIN\modules\TIER_1_processes\HEAT_CONDUCTION.m',8);{No tooltip}]] {
        ---
        {method} + conductivity_mixing_squares  [[[matlab:matlab.desktop.editor.openAndGoToFunction('C:\thin\02_Code\Matlab\CryoGRID\202008_CryoGrid_NewOOP_GIT_CURRENT_THIN\modules\TIER_1_processes\HEAT_CONDUCTION.m','conductivity_mixing_squares');{No tooltip}]]]
        {method} + conductivity_mixing_squares_Xice  [[[matlab:matlab.desktop.editor.openAndGoToFunction('C:\thin\02_Code\Matlab\CryoGRID\202008_CryoGrid_NewOOP_GIT_CURRENT_THIN\modules\TIER_1_processes\HEAT_CONDUCTION.m','conductivity_mixing_squares_Xice');{No tooltip}]]]
        {method} + conductivity_snow_Yen  [[[matlab:matlab.desktop.editor.openAndGoToFunction('C:\thin\02_Code\Matlab\CryoGRID\202008_CryoGrid_NewOOP_GIT_CURRENT_THIN\modules\TIER_1_processes\HEAT_CONDUCTION.m','conductivity_snow_Yen');{No tooltip}]]]
        {method} + get_derivative_energy  [[[matlab:matlab.desktop.editor.openAndGoToFunction('C:\thin\02_Code\Matlab\CryoGRID\202008_CryoGrid_NewOOP_GIT_CURRENT_THIN\modules\TIER_1_processes\HEAT_CONDUCTION.m','get_derivative_energy');{No tooltip}]]]
        {method} + get_E_freeW  [[[matlab:matlab.desktop.editor.openAndGoToFunction('C:\thin\02_Code\Matlab\CryoGRID\202008_CryoGrid_NewOOP_GIT_CURRENT_THIN\modules\TIER_1_processes\HEAT_CONDUCTION.m','get_E_freeW');{No tooltip}]]]
        {method} + get_T_water_freeW  [[[matlab:matlab.desktop.editor.openAndGoToFunction('C:\thin\02_Code\Matlab\CryoGRID\202008_CryoGrid_NewOOP_GIT_CURRENT_THIN\modules\TIER_1_processes\HEAT_CONDUCTION.m','get_T_water_freeW');{No tooltip}]]]
        {method} + get_timestep_heat_coduction  [[[matlab:matlab.desktop.editor.openAndGoToFunction('C:\thin\02_Code\Matlab\CryoGRID\202008_CryoGrid_NewOOP_GIT_CURRENT_THIN\modules\TIER_1_processes\HEAT_CONDUCTION.m','get_timestep_heat_coduction');{No tooltip}]]]
    }
    class HEAT_FLUXES_LATERAL <<(H,#E6FFE6)>> [[matlab:matlab.desktop.editor.openAndGoToLine('C:\thin\02_Code\Matlab\CryoGRID\202008_CryoGrid_NewOOP_GIT_CURRENT_THIN\modules\TIER_1_processes\HEAT_FLUXES_LATERAL.m',8);{No tooltip}]] {
        ---
        {method} + lateral3D_pull_heat_simple  [[[matlab:matlab.desktop.editor.openAndGoToFunction('C:\thin\02_Code\Matlab\CryoGRID\202008_CryoGrid_NewOOP_GIT_CURRENT_THIN\modules\TIER_1_processes\HEAT_FLUXES_LATERAL.m','lateral3D_pull_heat_simple');{No tooltip}]]]
        {method} + lateral3D_push_heat_simple  [[[matlab:matlab.desktop.editor.openAndGoToFunction('C:\thin\02_Code\Matlab\CryoGRID\202008_CryoGrid_NewOOP_GIT_CURRENT_THIN\modules\TIER_1_processes\HEAT_FLUXES_LATERAL.m','lateral3D_push_heat_simple');{No tooltip}]]]
    }
    class SEB <<(H,#E6FFE6)>> [[matlab:matlab.desktop.editor.openAndGoToLine('C:\thin\02_Code\Matlab\CryoGRID\202008_CryoGrid_NewOOP_GIT_CURRENT_THIN\modules\TIER_1_processes\SEB.m',8);{No tooltip}]] {
        ---
        {method} + calculateET  [[[matlab:matlab.desktop.editor.openAndGoToFunction('C:\thin\02_Code\Matlab\CryoGRID\202008_CryoGrid_NewOOP_GIT_CURRENT_THIN\modules\TIER_1_processes\SEB.m','calculateET');{No tooltip}]]]
        {method} + calculateET_LAKE  [[[matlab:matlab.desktop.editor.openAndGoToFunction('C:\thin\02_Code\Matlab\CryoGRID\202008_CryoGrid_NewOOP_GIT_CURRENT_THIN\modules\TIER_1_processes\SEB.m','calculateET_LAKE');{No tooltip}]]]
        {method} + calculateET_Xice  [[[matlab:matlab.desktop.editor.openAndGoToFunction('C:\thin\02_Code\Matlab\CryoGRID\202008_CryoGrid_NewOOP_GIT_CURRENT_THIN\modules\TIER_1_processes\SEB.m','calculateET_Xice');{No tooltip}]]]
        {method} + getET_fraction  [[[matlab:matlab.desktop.editor.openAndGoToFunction('C:\thin\02_Code\Matlab\CryoGRID\202008_CryoGrid_NewOOP_GIT_CURRENT_THIN\modules\TIER_1_processes\SEB.m','getET_fraction');{waterC = seb.STATVAR.waterIce ./ seb.STATVAR.layerThick ./ max(1e-20, seb.STATVAR.area); %area can get zero if the area of SNOW CHILD is 100%}]]]
        {method} + getET_fraction_Xice  [[[matlab:matlab.desktop.editor.openAndGoToFunction('C:\thin\02_Code\Matlab\CryoGRID\202008_CryoGrid_NewOOP_GIT_CURRENT_THIN\modules\TIER_1_processes\SEB.m','getET_fraction_Xice');{No tooltip}]]]
        {method} + L_star  [[[matlab:matlab.desktop.editor.openAndGoToFunction('C:\thin\02_Code\Matlab\CryoGRID\202008_CryoGrid_NewOOP_GIT_CURRENT_THIN\modules\TIER_1_processes\SEB.m','L_star');{No tooltip}]]]
        {method} + latent_heat_evaporation  [[[matlab:matlab.desktop.editor.openAndGoToFunction('C:\thin\02_Code\Matlab\CryoGRID\202008_CryoGrid_NewOOP_GIT_CURRENT_THIN\modules\TIER_1_processes\SEB.m','latent_heat_evaporation');{No tooltip}]]]
        {method} + latent_heat_sublimation  [[[matlab:matlab.desktop.editor.openAndGoToFunction('C:\thin\02_Code\Matlab\CryoGRID\202008_CryoGrid_NewOOP_GIT_CURRENT_THIN\modules\TIER_1_processes\SEB.m','latent_heat_sublimation');{No tooltip}]]]
        {method} + penetrate_SW_no_transmission  [[[matlab:matlab.desktop.editor.openAndGoToFunction('C:\thin\02_Code\Matlab\CryoGRID\202008_CryoGrid_NewOOP_GIT_CURRENT_THIN\modules\TIER_1_processes\SEB.m','penetrate_SW_no_transmission');{No tooltip}]]]
        {method} + penetrate_SW_transmission_bulk  [[[matlab:matlab.desktop.editor.openAndGoToFunction('C:\thin\02_Code\Matlab\CryoGRID\202008_CryoGrid_NewOOP_GIT_CURRENT_THIN\modules\TIER_1_processes\SEB.m','penetrate_SW_transmission_bulk');{S_up and S_down can in principle be spectrally resolved when provided as}]]]
        {method} + penetrate_SW_transmission_spectral  [[[matlab:matlab.desktop.editor.openAndGoToFunction('C:\thin\02_Code\Matlab\CryoGRID\202008_CryoGrid_NewOOP_GIT_CURRENT_THIN\modules\TIER_1_processes\SEB.m','penetrate_SW_transmission_spectral');{S_up and S_down are spectrally resolved when provided as}]]]
        {method} + psi_H  [[[matlab:matlab.desktop.editor.openAndGoToFunction('C:\thin\02_Code\Matlab\CryoGRID\202008_CryoGrid_NewOOP_GIT_CURRENT_THIN\modules\TIER_1_processes\SEB.m','psi_H');{No tooltip}]]]
        {method} + psi_M  [[[matlab:matlab.desktop.editor.openAndGoToFunction('C:\thin\02_Code\Matlab\CryoGRID\202008_CryoGrid_NewOOP_GIT_CURRENT_THIN\modules\TIER_1_processes\SEB.m','psi_M');{No tooltip}]]]
        {method} + Q_eq  [[[matlab:matlab.desktop.editor.openAndGoToFunction('C:\thin\02_Code\Matlab\CryoGRID\202008_CryoGrid_NewOOP_GIT_CURRENT_THIN\modules\TIER_1_processes\SEB.m','Q_eq');{No tooltip}]]]
        {method} + Q_eq_potET  [[[matlab:matlab.desktop.editor.openAndGoToFunction('C:\thin\02_Code\Matlab\CryoGRID\202008_CryoGrid_NewOOP_GIT_CURRENT_THIN\modules\TIER_1_processes\SEB.m','Q_eq_potET');{No tooltip}]]]
        {method} + Q_h  [[[matlab:matlab.desktop.editor.openAndGoToFunction('C:\thin\02_Code\Matlab\CryoGRID\202008_CryoGrid_NewOOP_GIT_CURRENT_THIN\modules\TIER_1_processes\SEB.m','Q_h');{No tooltip}]]]
        {method} + rho_air  [[[matlab:matlab.desktop.editor.openAndGoToFunction('C:\thin\02_Code\Matlab\CryoGRID\202008_CryoGrid_NewOOP_GIT_CURRENT_THIN\modules\TIER_1_processes\SEB.m','rho_air');{No tooltip}]]]
        {method} + satPresIce  [[[matlab:matlab.desktop.editor.openAndGoToFunction('C:\thin\02_Code\Matlab\CryoGRID\202008_CryoGrid_NewOOP_GIT_CURRENT_THIN\modules\TIER_1_processes\SEB.m','satPresIce');{No tooltip}]]]
        {method} + satPresWater  [[[matlab:matlab.desktop.editor.openAndGoToFunction('C:\thin\02_Code\Matlab\CryoGRID\202008_CryoGrid_NewOOP_GIT_CURRENT_THIN\modules\TIER_1_processes\SEB.m','satPresWater');{No tooltip}]]]
    }
    SEB <|-- GROUND_freeW_seb
    HEAT_CONDUCTION <|-- GROUND_freeW_seb
    HEAT_FLUXES_LATERAL <|-- GROUND_freeW_seb
    GROUND_freeW_seb <|-- GROUND_freeW_seb_snow
    BASE <|-- HEAT_CONDUCTION
    BASE <|-- HEAT_FLUXES_LATERAL
    BASE <|-- SEB
@enduml
