@startuml
    skinparam {
    }
    title
        <font color=Maroon size=18>Inheritance map for TIER 1 classes</font>
    end title
    class AIR_CONVECTION <<(H,#E6FFE6)>> [[matlab:matlab.desktop.editor.openAndGoToLine('C:\thin\02_Code\Matlab\CryoGRID\202008_CryoGrid_NewOOP_GIT_CURRENT_THIN\modules\TIER_1_processes\AIR_CONVECTION.m',9);{No tooltip}]] {
        ---
        {method} + get_boundary_condition_u_convection  [[[matlab:matlab.desktop.editor.openAndGoToFunction('C:\thin\02_Code\Matlab\CryoGRID\202008_CryoGrid_NewOOP_GIT_CURRENT_THIN\modules\TIER_1_processes\AIR_CONVECTION.m','get_boundary_condition_u_convection');{No tooltip}]]]
        {method} + get_derivative_air_convection_Darcy  [[[matlab:matlab.desktop.editor.openAndGoToFunction('C:\thin\02_Code\Matlab\CryoGRID\202008_CryoGrid_NewOOP_GIT_CURRENT_THIN\modules\TIER_1_processes\AIR_CONVECTION.m','get_derivative_air_convection_Darcy');{No tooltip}]]]
        {method} + get_derivative_air_convection_Darcy_Weisbach  [[[matlab:matlab.desktop.editor.openAndGoToFunction('C:\thin\02_Code\Matlab\CryoGRID\202008_CryoGrid_NewOOP_GIT_CURRENT_THIN\modules\TIER_1_processes\AIR_CONVECTION.m','get_derivative_air_convection_Darcy_Weisbach');{No tooltip}]]]
        {method} + get_timestep_air_convection  [[[matlab:matlab.desktop.editor.openAndGoToFunction('C:\thin\02_Code\Matlab\CryoGRID\202008_CryoGrid_NewOOP_GIT_CURRENT_THIN\modules\TIER_1_processes\AIR_CONVECTION.m','get_timestep_air_convection');{No tooltip}]]]
        {method} + permeability_air_Carman_Kozeny  [[[matlab:matlab.desktop.editor.openAndGoToFunction('C:\thin\02_Code\Matlab\CryoGRID\202008_CryoGrid_NewOOP_GIT_CURRENT_THIN\modules\TIER_1_processes\AIR_CONVECTION.m','permeability_air_Carman_Kozeny');{No tooltip}]]]
        {method} + permeability_air_Rumpf_Gupte  [[[matlab:matlab.desktop.editor.openAndGoToFunction('C:\thin\02_Code\Matlab\CryoGRID\202008_CryoGrid_NewOOP_GIT_CURRENT_THIN\modules\TIER_1_processes\AIR_CONVECTION.m','permeability_air_Rumpf_Gupte');{No tooltip}]]]
        {method} + pipes_Darcy_Weisbach  [[[matlab:matlab.desktop.editor.openAndGoToFunction('C:\thin\02_Code\Matlab\CryoGRID\202008_CryoGrid_NewOOP_GIT_CURRENT_THIN\modules\TIER_1_processes\AIR_CONVECTION.m','pipes_Darcy_Weisbach');{No tooltip}]]]
    }
    class BASE <<(H,#E6FFE6)>> [[matlab:matlab.desktop.editor.openAndGoToLine('C:\thin\02_Code\Matlab\CryoGRID\202008_CryoGrid_NewOOP_GIT_CURRENT_THIN\modules\TIER_0_base\BASE.m',6);{No tooltip}]] {
        {field} + class_index [[[matlab:matlab.desktop.editor.openAndGoToLine('C:\thin\02_Code\Matlab\CryoGRID\202008_CryoGrid_NewOOP_GIT_CURRENT_THIN\modules\TIER_0_base\BASE.m',9);{No tooltip}]]]
        {field} + CONST [[[matlab:matlab.desktop.editor.openAndGoToLine('C:\thin\02_Code\Matlab\CryoGRID\202008_CryoGrid_NewOOP_GIT_CURRENT_THIN\modules\TIER_0_base\BASE.m',10);{No tooltip}]]]
        {field} + IA_NEXT [[[matlab:matlab.desktop.editor.openAndGoToLine('C:\thin\02_Code\Matlab\CryoGRID\202008_CryoGrid_NewOOP_GIT_CURRENT_THIN\modules\TIER_0_base\BASE.m',17);{No tooltip}]]]
        {field} + IA_PREVIOUS [[[matlab:matlab.desktop.editor.openAndGoToLine('C:\thin\02_Code\Matlab\CryoGRID\202008_CryoGrid_NewOOP_GIT_CURRENT_THIN\modules\TIER_0_base\BASE.m',16);{No tooltip}]]]
        {field} + NEXT [[[matlab:matlab.desktop.editor.openAndGoToLine('C:\thin\02_Code\Matlab\CryoGRID\202008_CryoGrid_NewOOP_GIT_CURRENT_THIN\modules\TIER_0_base\BASE.m',15);{No tooltip}]]]
        {field} + PARA [[[matlab:matlab.desktop.editor.openAndGoToLine('C:\thin\02_Code\Matlab\CryoGRID\202008_CryoGrid_NewOOP_GIT_CURRENT_THIN\modules\TIER_0_base\BASE.m',11);{No tooltip}]]]
        {field} + PREVIOUS [[[matlab:matlab.desktop.editor.openAndGoToLine('C:\thin\02_Code\Matlab\CryoGRID\202008_CryoGrid_NewOOP_GIT_CURRENT_THIN\modules\TIER_0_base\BASE.m',14);{No tooltip}]]]
        {field} + STATVAR [[[matlab:matlab.desktop.editor.openAndGoToLine('C:\thin\02_Code\Matlab\CryoGRID\202008_CryoGrid_NewOOP_GIT_CURRENT_THIN\modules\TIER_0_base\BASE.m',12);{No tooltip}]]]
        {field} + TEMP [[[matlab:matlab.desktop.editor.openAndGoToLine('C:\thin\02_Code\Matlab\CryoGRID\202008_CryoGrid_NewOOP_GIT_CURRENT_THIN\modules\TIER_0_base\BASE.m',13);{No tooltip}]]]
        ---
        {method} + get_saturated_hardBottom_first_cell  [[[matlab:matlab.desktop.editor.openAndGoToFunction('C:\thin\02_Code\Matlab\CryoGRID\202008_CryoGrid_NewOOP_GIT_CURRENT_THIN\modules\TIER_0_base\BASE.m','get_saturated_hardBottom_first_cell');{No tooltip}]]]
        {method} + initialize_excel  [[[matlab:matlab.desktop.editor.openAndGoToFunction('C:\thin\02_Code\Matlab\CryoGRID\202008_CryoGrid_NewOOP_GIT_CURRENT_THIN\modules\TIER_0_base\BASE.m','initialize_excel');{No tooltip}]]]
        {method} + lateral3D_pull_heat  [[[matlab:matlab.desktop.editor.openAndGoToFunction('C:\thin\02_Code\Matlab\CryoGRID\202008_CryoGrid_NewOOP_GIT_CURRENT_THIN\modules\TIER_0_base\BASE.m','lateral3D_pull_heat');{No tooltip}]]]
        {method} + lateral3D_pull_water_general_aquifer  [[[matlab:matlab.desktop.editor.openAndGoToFunction('C:\thin\02_Code\Matlab\CryoGRID\202008_CryoGrid_NewOOP_GIT_CURRENT_THIN\modules\TIER_0_base\BASE.m','lateral3D_pull_water_general_aquifer');{No tooltip}]]]
        {method} + lateral3D_pull_water_unconfined_aquifer  [[[matlab:matlab.desktop.editor.openAndGoToFunction('C:\thin\02_Code\Matlab\CryoGRID\202008_CryoGrid_NewOOP_GIT_CURRENT_THIN\modules\TIER_0_base\BASE.m','lateral3D_pull_water_unconfined_aquifer');{No tooltip}]]]
        {method} + lateral3D_push_heat  [[[matlab:matlab.desktop.editor.openAndGoToFunction('C:\thin\02_Code\Matlab\CryoGRID\202008_CryoGrid_NewOOP_GIT_CURRENT_THIN\modules\TIER_0_base\BASE.m','lateral3D_push_heat');{No tooltip}]]]
        {method} + lateral3D_push_water_general_aquifer  [[[matlab:matlab.desktop.editor.openAndGoToFunction('C:\thin\02_Code\Matlab\CryoGRID\202008_CryoGrid_NewOOP_GIT_CURRENT_THIN\modules\TIER_0_base\BASE.m','lateral3D_push_water_general_aquifer');{No tooltip}]]]
        {method} + lateral3D_push_water_unconfined_aquifer  [[[matlab:matlab.desktop.editor.openAndGoToFunction('C:\thin\02_Code\Matlab\CryoGRID\202008_CryoGrid_NewOOP_GIT_CURRENT_THIN\modules\TIER_0_base\BASE.m','lateral3D_push_water_unconfined_aquifer');{No tooltip}]]]
        {method} + lateral_push_remove_subsurfaceWater  [[[matlab:matlab.desktop.editor.openAndGoToFunction('C:\thin\02_Code\Matlab\CryoGRID\202008_CryoGrid_NewOOP_GIT_CURRENT_THIN\modules\TIER_0_base\BASE.m','lateral_push_remove_subsurfaceWater');{No tooltip}]]]
        {method} + lateral_push_remove_surfaceWater  [[[matlab:matlab.desktop.editor.openAndGoToFunction('C:\thin\02_Code\Matlab\CryoGRID\202008_CryoGrid_NewOOP_GIT_CURRENT_THIN\modules\TIER_0_base\BASE.m','lateral_push_remove_surfaceWater');{No tooltip}]]]
        {method} + lateral_push_remove_water_seepage  [[[matlab:matlab.desktop.editor.openAndGoToFunction('C:\thin\02_Code\Matlab\CryoGRID\202008_CryoGrid_NewOOP_GIT_CURRENT_THIN\modules\TIER_0_base\BASE.m','lateral_push_remove_water_seepage');{No tooltip}]]]
        {method} + lateral_push_water_reservoir  [[[matlab:matlab.desktop.editor.openAndGoToFunction('C:\thin\02_Code\Matlab\CryoGRID\202008_CryoGrid_NewOOP_GIT_CURRENT_THIN\modules\TIER_0_base\BASE.m','lateral_push_water_reservoir');{No tooltip}]]]
    }
    class BGC_CLM4 <<(H,#E6FFE6)>> [[matlab:matlab.desktop.editor.openAndGoToLine('C:\thin\02_Code\Matlab\CryoGRID\202008_CryoGrid_NewOOP_GIT_CURRENT_THIN\modules\TIER_1_processes\BGC_CLM4.m',7);{No tooltip}]] {
        ---
        {method} + aerobicRate  [[[matlab:matlab.desktop.editor.openAndGoToFunction('C:\thin\02_Code\Matlab\CryoGRID\202008_CryoGrid_NewOOP_GIT_CURRENT_THIN\modules\TIER_1_processes\BGC_CLM4.m','aerobicRate');{AERODECOMP Simulates the decomposition of soil organic matter and}]]]
        {method} + anaerobicRate  [[[matlab:matlab.desktop.editor.openAndGoToFunction('C:\thin\02_Code\Matlab\CryoGRID\202008_CryoGrid_NewOOP_GIT_CURRENT_THIN\modules\TIER_1_processes\BGC_CLM4.m','anaerobicRate');{ANAEROBIC Calculates the rate of methane production and the}]]]
        {method} + CH4Oxidation  [[[matlab:matlab.desktop.editor.openAndGoToFunction('C:\thin\02_Code\Matlab\CryoGRID\202008_CryoGrid_NewOOP_GIT_CURRENT_THIN\modules\TIER_1_processes\BGC_CLM4.m','CH4Oxidation');{CH4OXIDATION Calculates the rate of methane oxidation (methanotrophy).}]]]
        {method} + NPP  [[[matlab:matlab.desktop.editor.openAndGoToFunction('C:\thin\02_Code\Matlab\CryoGRID\202008_CryoGrid_NewOOP_GIT_CURRENT_THIN\modules\TIER_1_processes\BGC_CLM4.m','NPP');{NPPtoLitter allocates fresh litter to litter pools.}]]]
        {method} + rootDistribution  [[[matlab:matlab.desktop.editor.openAndGoToFunction('C:\thin\02_Code\Matlab\CryoGRID\202008_CryoGrid_NewOOP_GIT_CURRENT_THIN\modules\TIER_1_processes\BGC_CLM4.m','rootDistribution');{ROOTDISTRIBUTION calculates the relative distribution of roots between}]]]
        {method} + sedimentationSimpleNPP  [[[matlab:matlab.desktop.editor.openAndGoToFunction('C:\thin\02_Code\Matlab\CryoGRID\202008_CryoGrid_NewOOP_GIT_CURRENT_THIN\modules\TIER_1_processes\BGC_CLM4.m','sedimentationSimpleNPP');{No tooltip}]]]
        {method} + SOCdiffusionRate  [[[matlab:matlab.desktop.editor.openAndGoToFunction('C:\thin\02_Code\Matlab\CryoGRID\202008_CryoGrid_NewOOP_GIT_CURRENT_THIN\modules\TIER_1_processes\BGC_CLM4.m','SOCdiffusionRate');{Read the depths of the cells from the lowest air cell to the lowest}]]]
    }
    class FREEZE_CURVE <<(H,#E6FFE6)>> [[matlab:matlab.desktop.editor.openAndGoToLine('C:\thin\02_Code\Matlab\CryoGRID\202008_CryoGrid_NewOOP_GIT_CURRENT_THIN\modules\TIER_1_processes\FREEZE_CURVE.m',8);{No tooltip}]] {
        {field} + LUT [[[matlab:matlab.desktop.editor.openAndGoToLine('C:\thin\02_Code\Matlab\CryoGRID\202008_CryoGrid_NewOOP_GIT_CURRENT_THIN\modules\TIER_1_processes\FREEZE_CURVE.m',12);{No tooltip}]]]
        ---
        {method} + create_LUT_freezeC  [[[matlab:matlab.desktop.editor.openAndGoToFunction('C:\thin\02_Code\Matlab\CryoGRID\202008_CryoGrid_NewOOP_GIT_CURRENT_THIN\modules\TIER_1_processes\FREEZE_CURVE.m','create_LUT_freezeC');{No tooltip}]]]
        {method} + get_E_freezeC  [[[matlab:matlab.desktop.editor.openAndGoToFunction('C:\thin\02_Code\Matlab\CryoGRID\202008_CryoGrid_NewOOP_GIT_CURRENT_THIN\modules\TIER_1_processes\FREEZE_CURVE.m','get_E_freezeC');{No tooltip}]]]
        {method} + get_E_freezeC_Xice  [[[matlab:matlab.desktop.editor.openAndGoToFunction('C:\thin\02_Code\Matlab\CryoGRID\202008_CryoGrid_NewOOP_GIT_CURRENT_THIN\modules\TIER_1_processes\FREEZE_CURVE.m','get_E_freezeC_Xice');{No tooltip}]]]
        {method} + get_T_water_freezeC  [[[matlab:matlab.desktop.editor.openAndGoToFunction('C:\thin\02_Code\Matlab\CryoGRID\202008_CryoGrid_NewOOP_GIT_CURRENT_THIN\modules\TIER_1_processes\FREEZE_CURVE.m','get_T_water_freezeC');{No tooltip}]]]
        {method} + get_T_water_freezeC_Xice  [[[matlab:matlab.desktop.editor.openAndGoToFunction('C:\thin\02_Code\Matlab\CryoGRID\202008_CryoGrid_NewOOP_GIT_CURRENT_THIN\modules\TIER_1_processes\FREEZE_CURVE.m','get_T_water_freezeC_Xice');{No tooltip}]]]
    }
    class HEAT_CONDUCTION <<(H,#E6FFE6)>> [[matlab:matlab.desktop.editor.openAndGoToLine('C:\thin\02_Code\Matlab\CryoGRID\202008_CryoGrid_NewOOP_GIT_CURRENT_THIN\modules\TIER_1_processes\HEAT_CONDUCTION.m',8);{No tooltip}]] {
        ---
        {method} + conductivity_mixing_squares  [[[matlab:matlab.desktop.editor.openAndGoToFunction('C:\thin\02_Code\Matlab\CryoGRID\202008_CryoGrid_NewOOP_GIT_CURRENT_THIN\modules\TIER_1_processes\HEAT_CONDUCTION.m','conductivity_mixing_squares');{No tooltip}]]]
        {method} + conductivity_mixing_squares_Xice  [[[matlab:matlab.desktop.editor.openAndGoToFunction('C:\thin\02_Code\Matlab\CryoGRID\202008_CryoGrid_NewOOP_GIT_CURRENT_THIN\modules\TIER_1_processes\HEAT_CONDUCTION.m','conductivity_mixing_squares_Xice');{No tooltip}]]]
        {method} + conductivity_snow_Yen  [[[matlab:matlab.desktop.editor.openAndGoToFunction('C:\thin\02_Code\Matlab\CryoGRID\202008_CryoGrid_NewOOP_GIT_CURRENT_THIN\modules\TIER_1_processes\HEAT_CONDUCTION.m','conductivity_snow_Yen');{No tooltip}]]]
        {method} + get_derivative_energy  [[[matlab:matlab.desktop.editor.openAndGoToFunction('C:\thin\02_Code\Matlab\CryoGRID\202008_CryoGrid_NewOOP_GIT_CURRENT_THIN\modules\TIER_1_processes\HEAT_CONDUCTION.m','get_derivative_energy');{No tooltip}]]]
        {method} + get_E_freeW  [[[matlab:matlab.desktop.editor.openAndGoToFunction('C:\thin\02_Code\Matlab\CryoGRID\202008_CryoGrid_NewOOP_GIT_CURRENT_THIN\modules\TIER_1_processes\HEAT_CONDUCTION.m','get_E_freeW');{No tooltip}]]]
        {method} + get_T_water_freeW  [[[matlab:matlab.desktop.editor.openAndGoToFunction('C:\thin\02_Code\Matlab\CryoGRID\202008_CryoGrid_NewOOP_GIT_CURRENT_THIN\modules\TIER_1_processes\HEAT_CONDUCTION.m','get_T_water_freeW');{No tooltip}]]]
        {method} + get_timestep_heat_coduction  [[[matlab:matlab.desktop.editor.openAndGoToFunction('C:\thin\02_Code\Matlab\CryoGRID\202008_CryoGrid_NewOOP_GIT_CURRENT_THIN\modules\TIER_1_processes\HEAT_CONDUCTION.m','get_timestep_heat_coduction');{No tooltip}]]]
    }
    class HEAT_FLUXES_LATERAL <<(H,#E6FFE6)>> [[matlab:matlab.desktop.editor.openAndGoToLine('C:\thin\02_Code\Matlab\CryoGRID\202008_CryoGrid_NewOOP_GIT_CURRENT_THIN\modules\TIER_1_processes\HEAT_FLUXES_LATERAL.m',8);{No tooltip}]] {
        ---
        {method} + lateral3D_pull_heat_simple  [[[matlab:matlab.desktop.editor.openAndGoToFunction('C:\thin\02_Code\Matlab\CryoGRID\202008_CryoGrid_NewOOP_GIT_CURRENT_THIN\modules\TIER_1_processes\HEAT_FLUXES_LATERAL.m','lateral3D_pull_heat_simple');{No tooltip}]]]
        {method} + lateral3D_push_heat_simple  [[[matlab:matlab.desktop.editor.openAndGoToFunction('C:\thin\02_Code\Matlab\CryoGRID\202008_CryoGrid_NewOOP_GIT_CURRENT_THIN\modules\TIER_1_processes\HEAT_FLUXES_LATERAL.m','lateral3D_push_heat_simple');{No tooltip}]]]
    }
    class INITIALIZE <<(H,#E6FFE6)>> [[matlab:matlab.desktop.editor.openAndGoToLine('C:\thin\02_Code\Matlab\CryoGRID\202008_CryoGrid_NewOOP_GIT_CURRENT_THIN\modules\TIER_1_processes\INITIALIZE.m',7);{No tooltip}]] {
        ---
        {method} + INITIALIZE  [[[matlab:matlab.desktop.editor.openAndGoToFunction('C:\thin\02_Code\Matlab\CryoGRID\202008_CryoGrid_NewOOP_GIT_CURRENT_THIN\modules\TIER_1_processes\INITIALIZE.m','INITIALIZE');{function self = GROUND_base_class(index, pprovider, cprovider, forcing)      % Definition to be used when old code is no longer supported}]]]
        {method} + initialize  [[[matlab:matlab.desktop.editor.openAndGoToFunction('C:\thin\02_Code\Matlab\CryoGRID\202008_CryoGrid_NewOOP_GIT_CURRENT_THIN\modules\TIER_1_processes\INITIALIZE.m','initialize');{INITIALIZE  Initializes all properties needed by the class.}]]]
        {method} + initialize_CONST  [[[matlab:matlab.desktop.editor.openAndGoToFunction('C:\thin\02_Code\Matlab\CryoGRID\202008_CryoGrid_NewOOP_GIT_CURRENT_THIN\modules\TIER_1_processes\INITIALIZE.m','initialize_CONST');{INITIALIZE_CONST  Initializes CONST structure. Only the parameters populated by the CONSTANT_PROVIDER should be defined here.}]]]
        {method} + initialize_PARA  [[[matlab:matlab.desktop.editor.openAndGoToFunction('C:\thin\02_Code\Matlab\CryoGRID\202008_CryoGrid_NewOOP_GIT_CURRENT_THIN\modules\TIER_1_processes\INITIALIZE.m','initialize_PARA');{INITIALIZE_PARA  Initializes PARA structure. Only the parameters populated by the PARAMETER_PROVIDER should be defined here, additional parameters will be dinamically created during the final stage of the initialization (finalize_setup).}]]]
        {method} + initialize_STATVAR  [[[matlab:matlab.desktop.editor.openAndGoToFunction('C:\thin\02_Code\Matlab\CryoGRID\202008_CryoGrid_NewOOP_GIT_CURRENT_THIN\modules\TIER_1_processes\INITIALIZE.m','initialize_STATVAR');{INITIALIZE_STATVAR  Initializes STATVAR structure.}]]]
        {method} + initialize_TEMP  [[[matlab:matlab.desktop.editor.openAndGoToFunction('C:\thin\02_Code\Matlab\CryoGRID\202008_CryoGrid_NewOOP_GIT_CURRENT_THIN\modules\TIER_1_processes\INITIALIZE.m','initialize_TEMP');{INITIALIZE_TEMP  Initializes TEMP structure.}]]]
        {method} + populate_CONST  [[[matlab:matlab.desktop.editor.openAndGoToFunction('C:\thin\02_Code\Matlab\CryoGRID\202008_CryoGrid_NewOOP_GIT_CURRENT_THIN\modules\TIER_1_processes\INITIALIZE.m','populate_CONST');{POPULATE_CONST  Updates the CONST structure with values from cprovider.}]]]
        {method} + populate_PARA  [[[matlab:matlab.desktop.editor.openAndGoToFunction('C:\thin\02_Code\Matlab\CryoGRID\202008_CryoGrid_NewOOP_GIT_CURRENT_THIN\modules\TIER_1_processes\INITIALIZE.m','populate_PARA');{POPULATE_PARA  Updates the PARA structure with values from pprovider.}]]]
    }
    class LAKE <<(H,#E6FFE6)>> [[matlab:matlab.desktop.editor.openAndGoToLine('C:\thin\02_Code\Matlab\CryoGRID\202008_CryoGrid_NewOOP_GIT_CURRENT_THIN\modules\TIER_1_processes\LAKE.m',6);{No tooltip}]] {
        ---
        {method} + move_ice_up  [[[matlab:matlab.desktop.editor.openAndGoToFunction('C:\thin\02_Code\Matlab\CryoGRID\202008_CryoGrid_NewOOP_GIT_CURRENT_THIN\modules\TIER_1_processes\LAKE.m','move_ice_up');{No tooltip}]]]
        {method} + reorganize_cells_frozen_melted  [[[matlab:matlab.desktop.editor.openAndGoToFunction('C:\thin\02_Code\Matlab\CryoGRID\202008_CryoGrid_NewOOP_GIT_CURRENT_THIN\modules\TIER_1_processes\LAKE.m','reorganize_cells_frozen_melted');{No tooltip}]]]
        {method} + stratify  [[[matlab:matlab.desktop.editor.openAndGoToFunction('C:\thin\02_Code\Matlab\CryoGRID\202008_CryoGrid_NewOOP_GIT_CURRENT_THIN\modules\TIER_1_processes\LAKE.m','stratify');{No tooltip}]]]
        {method} + water_density  [[[matlab:matlab.desktop.editor.openAndGoToFunction('C:\thin\02_Code\Matlab\CryoGRID\202008_CryoGrid_NewOOP_GIT_CURRENT_THIN\modules\TIER_1_processes\LAKE.m','water_density');{No tooltip}]]]
    }
    class REGRID <<(H,#E6FFE6)>> [[matlab:matlab.desktop.editor.openAndGoToLine('C:\thin\02_Code\Matlab\CryoGRID\202008_CryoGrid_NewOOP_GIT_CURRENT_THIN\modules\TIER_1_processes\REGRID.m',6);{No tooltip}]] {
        ---
        {method} + merge_cells_extensive  [[[matlab:matlab.desktop.editor.openAndGoToFunction('C:\thin\02_Code\Matlab\CryoGRID\202008_CryoGrid_NewOOP_GIT_CURRENT_THIN\modules\TIER_1_processes\REGRID.m','merge_cells_extensive');{No tooltip}]]]
        {method} + merge_cells_extensive2  [[[matlab:matlab.desktop.editor.openAndGoToFunction('C:\thin\02_Code\Matlab\CryoGRID\202008_CryoGrid_NewOOP_GIT_CURRENT_THIN\modules\TIER_1_processes\REGRID.m','merge_cells_extensive2');{No tooltip}]]]
        {method} + merge_cells_intensive  [[[matlab:matlab.desktop.editor.openAndGoToFunction('C:\thin\02_Code\Matlab\CryoGRID\202008_CryoGrid_NewOOP_GIT_CURRENT_THIN\modules\TIER_1_processes\REGRID.m','merge_cells_intensive');{weighted average, using scaling_variable as weighing function -> example:}]]]
        {method} + merge_cells_intensive2  [[[matlab:matlab.desktop.editor.openAndGoToFunction('C:\thin\02_Code\Matlab\CryoGRID\202008_CryoGrid_NewOOP_GIT_CURRENT_THIN\modules\TIER_1_processes\REGRID.m','merge_cells_intensive2');{No tooltip}]]]
        {method} + regrid_full  [[[matlab:matlab.desktop.editor.openAndGoToFunction('C:\thin\02_Code\Matlab\CryoGRID\202008_CryoGrid_NewOOP_GIT_CURRENT_THIN\modules\TIER_1_processes\REGRID.m','regrid_full');{No tooltip}]]]
        {method} + regrid_snow  [[[matlab:matlab.desktop.editor.openAndGoToFunction('C:\thin\02_Code\Matlab\CryoGRID\202008_CryoGrid_NewOOP_GIT_CURRENT_THIN\modules\TIER_1_processes\REGRID.m','regrid_snow');{No tooltip}]]]
        {method} + regrid_split  [[[matlab:matlab.desktop.editor.openAndGoToFunction('C:\thin\02_Code\Matlab\CryoGRID\202008_CryoGrid_NewOOP_GIT_CURRENT_THIN\modules\TIER_1_processes\REGRID.m','regrid_split');{No tooltip}]]]
        {method} + regrid_split_merge  [[[matlab:matlab.desktop.editor.openAndGoToFunction('C:\thin\02_Code\Matlab\CryoGRID\202008_CryoGrid_NewOOP_GIT_CURRENT_THIN\modules\TIER_1_processes\REGRID.m','regrid_split_merge');{possibly better use regrid_split for short timesteps and once}]]]
        {method} + split_cell_extensive  [[[matlab:matlab.desktop.editor.openAndGoToFunction('C:\thin\02_Code\Matlab\CryoGRID\202008_CryoGrid_NewOOP_GIT_CURRENT_THIN\modules\TIER_1_processes\REGRID.m','split_cell_extensive');{No tooltip}]]]
        {method} + split_cell_intensive  [[[matlab:matlab.desktop.editor.openAndGoToFunction('C:\thin\02_Code\Matlab\CryoGRID\202008_CryoGrid_NewOOP_GIT_CURRENT_THIN\modules\TIER_1_processes\REGRID.m','split_cell_intensive');{No tooltip}]]]
    }
    class SALT <<(H,#E6FFE6)>> [[matlab:matlab.desktop.editor.openAndGoToLine('C:\thin\02_Code\Matlab\CryoGRID\202008_CryoGrid_NewOOP_GIT_CURRENT_THIN\modules\TIER_1_processes\SALT.m',7);{No tooltip}]] {
        ---
        {method} + diffusivity_salt  [[[matlab:matlab.desktop.editor.openAndGoToFunction('C:\thin\02_Code\Matlab\CryoGRID\202008_CryoGrid_NewOOP_GIT_CURRENT_THIN\modules\TIER_1_processes\SALT.m','diffusivity_salt');{No tooltip}]]]
        {method} + get_boundary_condition_l_ZERO_SALT  [[[matlab:matlab.desktop.editor.openAndGoToFunction('C:\thin\02_Code\Matlab\CryoGRID\202008_CryoGrid_NewOOP_GIT_CURRENT_THIN\modules\TIER_1_processes\SALT.m','get_boundary_condition_l_ZERO_SALT');{No tooltip}]]]
        {method} + get_boundary_condition_u_ZERO_SALT  [[[matlab:matlab.desktop.editor.openAndGoToFunction('C:\thin\02_Code\Matlab\CryoGRID\202008_CryoGrid_NewOOP_GIT_CURRENT_THIN\modules\TIER_1_processes\SALT.m','get_boundary_condition_u_ZERO_SALT');{No tooltip}]]]
        {method} + get_derivative_salt  [[[matlab:matlab.desktop.editor.openAndGoToFunction('C:\thin\02_Code\Matlab\CryoGRID\202008_CryoGrid_NewOOP_GIT_CURRENT_THIN\modules\TIER_1_processes\SALT.m','get_derivative_salt');{No tooltip}]]]
        {method} + get_E_water_salt_FreezeDepress_Xice  [[[matlab:matlab.desktop.editor.openAndGoToFunction('C:\thin\02_Code\Matlab\CryoGRID\202008_CryoGrid_NewOOP_GIT_CURRENT_THIN\modules\TIER_1_processes\SALT.m','get_E_water_salt_FreezeDepress_Xice');{No tooltip}]]]
        {method} + get_T_water_salt_fcSimple_Xice  [[[matlab:matlab.desktop.editor.openAndGoToFunction('C:\thin\02_Code\Matlab\CryoGRID\202008_CryoGrid_NewOOP_GIT_CURRENT_THIN\modules\TIER_1_processes\SALT.m','get_T_water_salt_fcSimple_Xice');{No tooltip}]]]
        {method} + get_timestep_salt  [[[matlab:matlab.desktop.editor.openAndGoToFunction('C:\thin\02_Code\Matlab\CryoGRID\202008_CryoGrid_NewOOP_GIT_CURRENT_THIN\modules\TIER_1_processes\SALT.m','get_timestep_salt');{No tooltip}]]]
    }
    class SEB <<(H,#E6FFE6)>> [[matlab:matlab.desktop.editor.openAndGoToLine('C:\thin\02_Code\Matlab\CryoGRID\202008_CryoGrid_NewOOP_GIT_CURRENT_THIN\modules\TIER_1_processes\SEB.m',8);{No tooltip}]] {
        ---
        {method} + calculateET  [[[matlab:matlab.desktop.editor.openAndGoToFunction('C:\thin\02_Code\Matlab\CryoGRID\202008_CryoGrid_NewOOP_GIT_CURRENT_THIN\modules\TIER_1_processes\SEB.m','calculateET');{No tooltip}]]]
        {method} + calculateET_LAKE  [[[matlab:matlab.desktop.editor.openAndGoToFunction('C:\thin\02_Code\Matlab\CryoGRID\202008_CryoGrid_NewOOP_GIT_CURRENT_THIN\modules\TIER_1_processes\SEB.m','calculateET_LAKE');{No tooltip}]]]
        {method} + calculateET_Xice  [[[matlab:matlab.desktop.editor.openAndGoToFunction('C:\thin\02_Code\Matlab\CryoGRID\202008_CryoGrid_NewOOP_GIT_CURRENT_THIN\modules\TIER_1_processes\SEB.m','calculateET_Xice');{No tooltip}]]]
        {method} + getET_fraction  [[[matlab:matlab.desktop.editor.openAndGoToFunction('C:\thin\02_Code\Matlab\CryoGRID\202008_CryoGrid_NewOOP_GIT_CURRENT_THIN\modules\TIER_1_processes\SEB.m','getET_fraction');{waterC = seb.STATVAR.waterIce ./ seb.STATVAR.layerThick ./ max(1e-20, seb.STATVAR.area); %area can get zero if the area of SNOW CHILD is 100%}]]]
        {method} + getET_fraction_Xice  [[[matlab:matlab.desktop.editor.openAndGoToFunction('C:\thin\02_Code\Matlab\CryoGRID\202008_CryoGrid_NewOOP_GIT_CURRENT_THIN\modules\TIER_1_processes\SEB.m','getET_fraction_Xice');{No tooltip}]]]
        {method} + L_star  [[[matlab:matlab.desktop.editor.openAndGoToFunction('C:\thin\02_Code\Matlab\CryoGRID\202008_CryoGrid_NewOOP_GIT_CURRENT_THIN\modules\TIER_1_processes\SEB.m','L_star');{No tooltip}]]]
        {method} + latent_heat_evaporation  [[[matlab:matlab.desktop.editor.openAndGoToFunction('C:\thin\02_Code\Matlab\CryoGRID\202008_CryoGrid_NewOOP_GIT_CURRENT_THIN\modules\TIER_1_processes\SEB.m','latent_heat_evaporation');{No tooltip}]]]
        {method} + latent_heat_sublimation  [[[matlab:matlab.desktop.editor.openAndGoToFunction('C:\thin\02_Code\Matlab\CryoGRID\202008_CryoGrid_NewOOP_GIT_CURRENT_THIN\modules\TIER_1_processes\SEB.m','latent_heat_sublimation');{No tooltip}]]]
        {method} + penetrate_SW_no_transmission  [[[matlab:matlab.desktop.editor.openAndGoToFunction('C:\thin\02_Code\Matlab\CryoGRID\202008_CryoGrid_NewOOP_GIT_CURRENT_THIN\modules\TIER_1_processes\SEB.m','penetrate_SW_no_transmission');{No tooltip}]]]
        {method} + penetrate_SW_transmission_bulk  [[[matlab:matlab.desktop.editor.openAndGoToFunction('C:\thin\02_Code\Matlab\CryoGRID\202008_CryoGrid_NewOOP_GIT_CURRENT_THIN\modules\TIER_1_processes\SEB.m','penetrate_SW_transmission_bulk');{S_up and S_down can in principle be spectrally resolved when provided as}]]]
        {method} + penetrate_SW_transmission_spectral  [[[matlab:matlab.desktop.editor.openAndGoToFunction('C:\thin\02_Code\Matlab\CryoGRID\202008_CryoGrid_NewOOP_GIT_CURRENT_THIN\modules\TIER_1_processes\SEB.m','penetrate_SW_transmission_spectral');{S_up and S_down are spectrally resolved when provided as}]]]
        {method} + psi_H  [[[matlab:matlab.desktop.editor.openAndGoToFunction('C:\thin\02_Code\Matlab\CryoGRID\202008_CryoGrid_NewOOP_GIT_CURRENT_THIN\modules\TIER_1_processes\SEB.m','psi_H');{No tooltip}]]]
        {method} + psi_M  [[[matlab:matlab.desktop.editor.openAndGoToFunction('C:\thin\02_Code\Matlab\CryoGRID\202008_CryoGrid_NewOOP_GIT_CURRENT_THIN\modules\TIER_1_processes\SEB.m','psi_M');{No tooltip}]]]
        {method} + Q_eq  [[[matlab:matlab.desktop.editor.openAndGoToFunction('C:\thin\02_Code\Matlab\CryoGRID\202008_CryoGrid_NewOOP_GIT_CURRENT_THIN\modules\TIER_1_processes\SEB.m','Q_eq');{No tooltip}]]]
        {method} + Q_eq_potET  [[[matlab:matlab.desktop.editor.openAndGoToFunction('C:\thin\02_Code\Matlab\CryoGRID\202008_CryoGrid_NewOOP_GIT_CURRENT_THIN\modules\TIER_1_processes\SEB.m','Q_eq_potET');{No tooltip}]]]
        {method} + Q_h  [[[matlab:matlab.desktop.editor.openAndGoToFunction('C:\thin\02_Code\Matlab\CryoGRID\202008_CryoGrid_NewOOP_GIT_CURRENT_THIN\modules\TIER_1_processes\SEB.m','Q_h');{No tooltip}]]]
        {method} + rho_air  [[[matlab:matlab.desktop.editor.openAndGoToFunction('C:\thin\02_Code\Matlab\CryoGRID\202008_CryoGrid_NewOOP_GIT_CURRENT_THIN\modules\TIER_1_processes\SEB.m','rho_air');{No tooltip}]]]
        {method} + satPresIce  [[[matlab:matlab.desktop.editor.openAndGoToFunction('C:\thin\02_Code\Matlab\CryoGRID\202008_CryoGrid_NewOOP_GIT_CURRENT_THIN\modules\TIER_1_processes\SEB.m','satPresIce');{No tooltip}]]]
        {method} + satPresWater  [[[matlab:matlab.desktop.editor.openAndGoToFunction('C:\thin\02_Code\Matlab\CryoGRID\202008_CryoGrid_NewOOP_GIT_CURRENT_THIN\modules\TIER_1_processes\SEB.m','satPresWater');{No tooltip}]]]
    }
    class SNOW <<(H,#E6FFE6)>> [[matlab:matlab.desktop.editor.openAndGoToLine('C:\thin\02_Code\Matlab\CryoGRID\202008_CryoGrid_NewOOP_GIT_CURRENT_THIN\modules\TIER_1_processes\SNOW.m',7);{No tooltip}]] {
        ---
        {method} + advance_prognostic_new_snow_CHILD_crocus  [[[matlab:matlab.desktop.editor.openAndGoToFunction('C:\thin\02_Code\Matlab\CryoGRID\202008_CryoGrid_NewOOP_GIT_CURRENT_THIN\modules\TIER_1_processes\SNOW.m','advance_prognostic_new_snow_CHILD_crocus');{No tooltip}]]]
        {method} + advance_prognostic_new_snow_crocus  [[[matlab:matlab.desktop.editor.openAndGoToFunction('C:\thin\02_Code\Matlab\CryoGRID\202008_CryoGrid_NewOOP_GIT_CURRENT_THIN\modules\TIER_1_processes\SNOW.m','advance_prognostic_new_snow_crocus');{No tooltip}]]]
        {method} + calculate_albedo_crocus  [[[matlab:matlab.desktop.editor.openAndGoToFunction('C:\thin\02_Code\Matlab\CryoGRID\202008_CryoGrid_NewOOP_GIT_CURRENT_THIN\modules\TIER_1_processes\SNOW.m','calculate_albedo_crocus');{No tooltip}]]]
        {method} + calculate_albedo_simple  [[[matlab:matlab.desktop.editor.openAndGoToFunction('C:\thin\02_Code\Matlab\CryoGRID\202008_CryoGrid_NewOOP_GIT_CURRENT_THIN\modules\TIER_1_processes\SNOW.m','calculate_albedo_simple');{No tooltip}]]]
        {method} + compaction  [[[matlab:matlab.desktop.editor.openAndGoToFunction('C:\thin\02_Code\Matlab\CryoGRID\202008_CryoGrid_NewOOP_GIT_CURRENT_THIN\modules\TIER_1_processes\SNOW.m','compaction');{No tooltip}]]]
        {method} + get_boundary_condition_allSNOW_rain_u  [[[matlab:matlab.desktop.editor.openAndGoToFunction('C:\thin\02_Code\Matlab\CryoGRID\202008_CryoGrid_NewOOP_GIT_CURRENT_THIN\modules\TIER_1_processes\SNOW.m','get_boundary_condition_allSNOW_rain_u');{No tooltip}]]]
        {method} + get_boundary_condition_allSNOW_u  [[[matlab:matlab.desktop.editor.openAndGoToFunction('C:\thin\02_Code\Matlab\CryoGRID\202008_CryoGrid_NewOOP_GIT_CURRENT_THIN\modules\TIER_1_processes\SNOW.m','get_boundary_condition_allSNOW_u');{No tooltip}]]]
        {method} + get_boundary_condition_SNOW_u  [[[matlab:matlab.desktop.editor.openAndGoToFunction('C:\thin\02_Code\Matlab\CryoGRID\202008_CryoGrid_NewOOP_GIT_CURRENT_THIN\modules\TIER_1_processes\SNOW.m','get_boundary_condition_SNOW_u');{No tooltip}]]]
        {method} + get_snow_properties_crocus  [[[matlab:matlab.desktop.editor.openAndGoToFunction('C:\thin\02_Code\Matlab\CryoGRID\202008_CryoGrid_NewOOP_GIT_CURRENT_THIN\modules\TIER_1_processes\SNOW.m','get_snow_properties_crocus');{No tooltip}]]]
        {method} + get_sublimation  [[[matlab:matlab.desktop.editor.openAndGoToFunction('C:\thin\02_Code\Matlab\CryoGRID\202008_CryoGrid_NewOOP_GIT_CURRENT_THIN\modules\TIER_1_processes\SNOW.m','get_sublimation');{No tooltip}]]]
        {method} + get_T_gradient_snow  [[[matlab:matlab.desktop.editor.openAndGoToFunction('C:\thin\02_Code\Matlab\CryoGRID\202008_CryoGrid_NewOOP_GIT_CURRENT_THIN\modules\TIER_1_processes\SNOW.m','get_T_gradient_snow');{No tooltip}]]]
        {method} + get_T_gradient_snow_single_cell  [[[matlab:matlab.desktop.editor.openAndGoToFunction('C:\thin\02_Code\Matlab\CryoGRID\202008_CryoGrid_NewOOP_GIT_CURRENT_THIN\modules\TIER_1_processes\SNOW.m','get_T_gradient_snow_single_cell');{No tooltip}]]]
        {method} + get_timestep_SNOW  [[[matlab:matlab.desktop.editor.openAndGoToFunction('C:\thin\02_Code\Matlab\CryoGRID\202008_CryoGrid_NewOOP_GIT_CURRENT_THIN\modules\TIER_1_processes\SNOW.m','get_timestep_SNOW');{No tooltip}]]]
        {method} + get_timestep_SNOW_CHILD  [[[matlab:matlab.desktop.editor.openAndGoToFunction('C:\thin\02_Code\Matlab\CryoGRID\202008_CryoGrid_NewOOP_GIT_CURRENT_THIN\modules\TIER_1_processes\SNOW.m','get_timestep_SNOW_CHILD');{timestep = (-snow.STATVAR.energy ./ snow.TEMP.d_energy) .* double(snow.TEMP.d_energy>0) + double(snow.TEMP.d_energy<=0).*snow.PARA.dt_max;}]]]
        {method} + get_timestep_SNOW_mass_balance  [[[matlab:matlab.desktop.editor.openAndGoToFunction('C:\thin\02_Code\Matlab\CryoGRID\202008_CryoGrid_NewOOP_GIT_CURRENT_THIN\modules\TIER_1_processes\SNOW.m','get_timestep_SNOW_mass_balance');{No tooltip}]]]
        {method} + get_timestep_SNOW_sublimation  [[[matlab:matlab.desktop.editor.openAndGoToFunction('C:\thin\02_Code\Matlab\CryoGRID\202008_CryoGrid_NewOOP_GIT_CURRENT_THIN\modules\TIER_1_processes\SNOW.m','get_timestep_SNOW_sublimation');{No tooltip}]]]
        {method} + initialize_zero_snow_BASE  [[[matlab:matlab.desktop.editor.openAndGoToFunction('C:\thin\02_Code\Matlab\CryoGRID\202008_CryoGrid_NewOOP_GIT_CURRENT_THIN\modules\TIER_1_processes\SNOW.m','initialize_zero_snow_BASE');{No tooltip}]]]
        {method} + make_SNOW_CHILD  [[[matlab:matlab.desktop.editor.openAndGoToFunction('C:\thin\02_Code\Matlab\CryoGRID\202008_CryoGrid_NewOOP_GIT_CURRENT_THIN\modules\TIER_1_processes\SNOW.m','make_SNOW_CHILD');{No tooltip}]]]
        {method} + prog_metamorphism  [[[matlab:matlab.desktop.editor.openAndGoToFunction('C:\thin\02_Code\Matlab\CryoGRID\202008_CryoGrid_NewOOP_GIT_CURRENT_THIN\modules\TIER_1_processes\SNOW.m','prog_metamorphism');{No tooltip}]]]
        {method} + prog_wind_drift  [[[matlab:matlab.desktop.editor.openAndGoToFunction('C:\thin\02_Code\Matlab\CryoGRID\202008_CryoGrid_NewOOP_GIT_CURRENT_THIN\modules\TIER_1_processes\SNOW.m','prog_wind_drift');{No tooltip}]]]
        {method} + subtract_water  [[[matlab:matlab.desktop.editor.openAndGoToFunction('C:\thin\02_Code\Matlab\CryoGRID\202008_CryoGrid_NewOOP_GIT_CURRENT_THIN\modules\TIER_1_processes\SNOW.m','subtract_water');{No tooltip}]]]
        {method} + subtract_water2  [[[matlab:matlab.desktop.editor.openAndGoToFunction('C:\thin\02_Code\Matlab\CryoGRID\202008_CryoGrid_NewOOP_GIT_CURRENT_THIN\modules\TIER_1_processes\SNOW.m','subtract_water2');{No tooltip}]]]
        {method} + subtract_water_CHILD  [[[matlab:matlab.desktop.editor.openAndGoToFunction('C:\thin\02_Code\Matlab\CryoGRID\202008_CryoGrid_NewOOP_GIT_CURRENT_THIN\modules\TIER_1_processes\SNOW.m','subtract_water_CHILD');{No tooltip}]]]
        {method} + subtract_water_CHILD2  [[[matlab:matlab.desktop.editor.openAndGoToFunction('C:\thin\02_Code\Matlab\CryoGRID\202008_CryoGrid_NewOOP_GIT_CURRENT_THIN\modules\TIER_1_processes\SNOW.m','subtract_water_CHILD2');{No tooltip}]]]
    }
    class SNOW_FLUXES_LATERAL <<(H,#E6FFE6)>> [[matlab:matlab.desktop.editor.openAndGoToLine('C:\thin\02_Code\Matlab\CryoGRID\202008_CryoGrid_NewOOP_GIT_CURRENT_THIN\modules\TIER_1_processes\SNOW_FLUXES_LATERAL.m',9);{No tooltip}]] {
        ---
        {method} + lateral3D_pull_snow_crocus  [[[matlab:matlab.desktop.editor.openAndGoToFunction('C:\thin\02_Code\Matlab\CryoGRID\202008_CryoGrid_NewOOP_GIT_CURRENT_THIN\modules\TIER_1_processes\SNOW_FLUXES_LATERAL.m','lateral3D_pull_snow_crocus');{No tooltip}]]]
        {method} + lateral3D_push_snow_crocus  [[[matlab:matlab.desktop.editor.openAndGoToFunction('C:\thin\02_Code\Matlab\CryoGRID\202008_CryoGrid_NewOOP_GIT_CURRENT_THIN\modules\TIER_1_processes\SNOW_FLUXES_LATERAL.m','lateral3D_push_snow_crocus');{No tooltip}]]]
        {method} + lateral3D_push_snow_crocus2  [[[matlab:matlab.desktop.editor.openAndGoToFunction('C:\thin\02_Code\Matlab\CryoGRID\202008_CryoGrid_NewOOP_GIT_CURRENT_THIN\modules\TIER_1_processes\SNOW_FLUXES_LATERAL.m','lateral3D_push_snow_crocus2');{No tooltip}]]]
    }
    class SOIL_GAS <<(H,#E6FFE6)>> [[matlab:matlab.desktop.editor.openAndGoToLine('C:\thin\02_Code\Matlab\CryoGRID\202008_CryoGrid_NewOOP_GIT_CURRENT_THIN\modules\TIER_1_processes\SOIL_GAS.m',7);{No tooltip}]] {
        ---
        {method} + BubbleVolumeSolver  [[[matlab:matlab.desktop.editor.openAndGoToFunction('C:\thin\02_Code\Matlab\CryoGRID\202008_CryoGrid_NewOOP_GIT_CURRENT_THIN\modules\TIER_1_processes\SOIL_GAS.m','BubbleVolumeSolver');{not sure what this is for}]]]
        {method} + cFromMass  [[[matlab:matlab.desktop.editor.openAndGoToFunction('C:\thin\02_Code\Matlab\CryoGRID\202008_CryoGrid_NewOOP_GIT_CURRENT_THIN\modules\TIER_1_processes\SOIL_GAS.m','cFromMass');{CFROMMASS Calculates the headspace concentration from the mass}]]]
        {method} + gasDifRateSurfEquil  [[[matlab:matlab.desktop.editor.openAndGoToFunction('C:\thin\02_Code\Matlab\CryoGRID\202008_CryoGrid_NewOOP_GIT_CURRENT_THIN\modules\TIER_1_processes\SOIL_GAS.m','gasDifRateSurfEquil');{We use Fick's first law of diffusion for adjoining cells}]]]
        {method} + Henry_solubility  [[[matlab:matlab.desktop.editor.openAndGoToFunction('C:\thin\02_Code\Matlab\CryoGRID\202008_CryoGrid_NewOOP_GIT_CURRENT_THIN\modules\TIER_1_processes\SOIL_GAS.m','Henry_solubility');{Henry_solubility This function calculates the dimmensionless Henry}]]]
        {method} + massFrom_c  [[[matlab:matlab.desktop.editor.openAndGoToFunction('C:\thin\02_Code\Matlab\CryoGRID\202008_CryoGrid_NewOOP_GIT_CURRENT_THIN\modules\TIER_1_processes\SOIL_GAS.m','massFrom_c');{CFROMMASS Calculates the headspace concentration from the mass}]]]
        {method} + soil_gas_diffusivities  [[[matlab:matlab.desktop.editor.openAndGoToFunction('C:\thin\02_Code\Matlab\CryoGRID\202008_CryoGrid_NewOOP_GIT_CURRENT_THIN\modules\TIER_1_processes\SOIL_GAS.m','soil_gas_diffusivities');{DIFFUSIVITIES This function calculates the diffusion}]]]
        {method} + totalCmass  [[[matlab:matlab.desktop.editor.openAndGoToFunction('C:\thin\02_Code\Matlab\CryoGRID\202008_CryoGrid_NewOOP_GIT_CURRENT_THIN\modules\TIER_1_processes\SOIL_GAS.m','totalCmass');{TOCMASS Calculates the total carbon mass in the GRID variable struct}]]]
        {method} + waterPressure  [[[matlab:matlab.desktop.editor.openAndGoToFunction('C:\thin\02_Code\Matlab\CryoGRID\202008_CryoGrid_NewOOP_GIT_CURRENT_THIN\modules\TIER_1_processes\SOIL_GAS.m','waterPressure');{No tooltip}]]]
    }
    class WATER_FLUXES <<(H,#E6FFE6)>> [[matlab:matlab.desktop.editor.openAndGoToLine('C:\thin\02_Code\Matlab\CryoGRID\202008_CryoGrid_NewOOP_GIT_CURRENT_THIN\modules\TIER_1_processes\WATER_FLUXES.m',6);{No tooltip}]] {
        ---
        {method} + calculate_hydraulicConductivity  [[[matlab:matlab.desktop.editor.openAndGoToFunction('C:\thin\02_Code\Matlab\CryoGRID\202008_CryoGrid_NewOOP_GIT_CURRENT_THIN\modules\TIER_1_processes\WATER_FLUXES.m','calculate_hydraulicConductivity');{No tooltip}]]]
        {method} + calculate_hydraulicConductivity_RichardsEq  [[[matlab:matlab.desktop.editor.openAndGoToFunction('C:\thin\02_Code\Matlab\CryoGRID\202008_CryoGrid_NewOOP_GIT_CURRENT_THIN\modules\TIER_1_processes\WATER_FLUXES.m','calculate_hydraulicConductivity_RichardsEq');{No tooltip}]]]
        {method} + calculate_hydraulicConductivity_RichardsEq_Xice  [[[matlab:matlab.desktop.editor.openAndGoToFunction('C:\thin\02_Code\Matlab\CryoGRID\202008_CryoGrid_NewOOP_GIT_CURRENT_THIN\modules\TIER_1_processes\WATER_FLUXES.m','calculate_hydraulicConductivity_RichardsEq_Xice');{No tooltip}]]]
        {method} + calculate_hydraulicConductivity_SNOW  [[[matlab:matlab.desktop.editor.openAndGoToFunction('C:\thin\02_Code\Matlab\CryoGRID\202008_CryoGrid_NewOOP_GIT_CURRENT_THIN\modules\TIER_1_processes\WATER_FLUXES.m','calculate_hydraulicConductivity_SNOW');{No tooltip}]]]
        {method} + calculate_hydraulicConductivity_Xice  [[[matlab:matlab.desktop.editor.openAndGoToFunction('C:\thin\02_Code\Matlab\CryoGRID\202008_CryoGrid_NewOOP_GIT_CURRENT_THIN\modules\TIER_1_processes\WATER_FLUXES.m','calculate_hydraulicConductivity_Xice');{No tooltip}]]]
        {method} + get_boundary_condition_l_water2  [[[matlab:matlab.desktop.editor.openAndGoToFunction('C:\thin\02_Code\Matlab\CryoGRID\202008_CryoGrid_NewOOP_GIT_CURRENT_THIN\modules\TIER_1_processes\WATER_FLUXES.m','get_boundary_condition_l_water2');{No tooltip}]]]
        {method} + get_boundary_condition_u_RichardsEq  [[[matlab:matlab.desktop.editor.openAndGoToFunction('C:\thin\02_Code\Matlab\CryoGRID\202008_CryoGrid_NewOOP_GIT_CURRENT_THIN\modules\TIER_1_processes\WATER_FLUXES.m','get_boundary_condition_u_RichardsEq');{No tooltip}]]]
        {method} + get_boundary_condition_u_water2  [[[matlab:matlab.desktop.editor.openAndGoToFunction('C:\thin\02_Code\Matlab\CryoGRID\202008_CryoGrid_NewOOP_GIT_CURRENT_THIN\modules\TIER_1_processes\WATER_FLUXES.m','get_boundary_condition_u_water2');{No tooltip}]]]
        {method} + get_boundary_condition_u_water_LAKE  [[[matlab:matlab.desktop.editor.openAndGoToFunction('C:\thin\02_Code\Matlab\CryoGRID\202008_CryoGrid_NewOOP_GIT_CURRENT_THIN\modules\TIER_1_processes\WATER_FLUXES.m','get_boundary_condition_u_water_LAKE');{No tooltip}]]]
        {method} + get_boundary_condition_u_water_LAKE_frozen  [[[matlab:matlab.desktop.editor.openAndGoToFunction('C:\thin\02_Code\Matlab\CryoGRID\202008_CryoGrid_NewOOP_GIT_CURRENT_THIN\modules\TIER_1_processes\WATER_FLUXES.m','get_boundary_condition_u_water_LAKE_frozen');{No tooltip}]]]
        {method} + get_boundary_condition_u_water_RichardsEq_Xice  [[[matlab:matlab.desktop.editor.openAndGoToFunction('C:\thin\02_Code\Matlab\CryoGRID\202008_CryoGrid_NewOOP_GIT_CURRENT_THIN\modules\TIER_1_processes\WATER_FLUXES.m','get_boundary_condition_u_water_RichardsEq_Xice');{No tooltip}]]]
        {method} + get_boundary_condition_u_water_SNOW  [[[matlab:matlab.desktop.editor.openAndGoToFunction('C:\thin\02_Code\Matlab\CryoGRID\202008_CryoGrid_NewOOP_GIT_CURRENT_THIN\modules\TIER_1_processes\WATER_FLUXES.m','get_boundary_condition_u_water_SNOW');{No tooltip}]]]
        {method} + get_boundary_condition_u_water_Xice  [[[matlab:matlab.desktop.editor.openAndGoToFunction('C:\thin\02_Code\Matlab\CryoGRID\202008_CryoGrid_NewOOP_GIT_CURRENT_THIN\modules\TIER_1_processes\WATER_FLUXES.m','get_boundary_condition_u_water_Xice');{No tooltip}]]]
        {method} + get_derivative_water2  [[[matlab:matlab.desktop.editor.openAndGoToFunction('C:\thin\02_Code\Matlab\CryoGRID\202008_CryoGrid_NewOOP_GIT_CURRENT_THIN\modules\TIER_1_processes\WATER_FLUXES.m','get_derivative_water2');{No tooltip}]]]
        {method} + get_derivative_water_RichardsEq  [[[matlab:matlab.desktop.editor.openAndGoToFunction('C:\thin\02_Code\Matlab\CryoGRID\202008_CryoGrid_NewOOP_GIT_CURRENT_THIN\modules\TIER_1_processes\WATER_FLUXES.m','get_derivative_water_RichardsEq');{No tooltip}]]]
        {method} + get_derivative_water_RichardsEq_Xice  [[[matlab:matlab.desktop.editor.openAndGoToFunction('C:\thin\02_Code\Matlab\CryoGRID\202008_CryoGrid_NewOOP_GIT_CURRENT_THIN\modules\TIER_1_processes\WATER_FLUXES.m','get_derivative_water_RichardsEq_Xice');{No tooltip}]]]
        {method} + get_derivative_water_SNOW  [[[matlab:matlab.desktop.editor.openAndGoToFunction('C:\thin\02_Code\Matlab\CryoGRID\202008_CryoGrid_NewOOP_GIT_CURRENT_THIN\modules\TIER_1_processes\WATER_FLUXES.m','get_derivative_water_SNOW');{No tooltip}]]]
        {method} + get_derivative_water_Xice  [[[matlab:matlab.desktop.editor.openAndGoToFunction('C:\thin\02_Code\Matlab\CryoGRID\202008_CryoGrid_NewOOP_GIT_CURRENT_THIN\modules\TIER_1_processes\WATER_FLUXES.m','get_derivative_water_Xice');{No tooltip}]]]
        {method} + get_derivative_Xwater  [[[matlab:matlab.desktop.editor.openAndGoToFunction('C:\thin\02_Code\Matlab\CryoGRID\202008_CryoGrid_NewOOP_GIT_CURRENT_THIN\modules\TIER_1_processes\WATER_FLUXES.m','get_derivative_Xwater');{saturation = ground.STATVAR.Xwater ./ ground.STATVAR.area ./ (ground.PARA.hydraulicConductivity .* ground.PARA.dt_max);}]]]
        {method} + get_timestep_water  [[[matlab:matlab.desktop.editor.openAndGoToFunction('C:\thin\02_Code\Matlab\CryoGRID\202008_CryoGrid_NewOOP_GIT_CURRENT_THIN\modules\TIER_1_processes\WATER_FLUXES.m','get_timestep_water');{outflow + inflow}]]]
        {method} + get_timestep_water_RichardsEq  [[[matlab:matlab.desktop.editor.openAndGoToFunction('C:\thin\02_Code\Matlab\CryoGRID\202008_CryoGrid_NewOOP_GIT_CURRENT_THIN\modules\TIER_1_processes\WATER_FLUXES.m','get_timestep_water_RichardsEq');{no negative values and no overtopping}]]]
        {method} + get_timestep_water_RichardsEq_Xice  [[[matlab:matlab.desktop.editor.openAndGoToFunction('C:\thin\02_Code\Matlab\CryoGRID\202008_CryoGrid_NewOOP_GIT_CURRENT_THIN\modules\TIER_1_processes\WATER_FLUXES.m','get_timestep_water_RichardsEq_Xice');{no negative values and no overtopping}]]]
        {method} + get_timestep_water_SNOW  [[[matlab:matlab.desktop.editor.openAndGoToFunction('C:\thin\02_Code\Matlab\CryoGRID\202008_CryoGrid_NewOOP_GIT_CURRENT_THIN\modules\TIER_1_processes\WATER_FLUXES.m','get_timestep_water_SNOW');{outflow + inflow}]]]
        {method} + get_timestep_water_Xice  [[[matlab:matlab.desktop.editor.openAndGoToFunction('C:\thin\02_Code\Matlab\CryoGRID\202008_CryoGrid_NewOOP_GIT_CURRENT_THIN\modules\TIER_1_processes\WATER_FLUXES.m','get_timestep_water_Xice');{outflow + inflow}]]]
        {method} + get_timestep_Xwater  [[[matlab:matlab.desktop.editor.openAndGoToFunction('C:\thin\02_Code\Matlab\CryoGRID\202008_CryoGrid_NewOOP_GIT_CURRENT_THIN\modules\TIER_1_processes\WATER_FLUXES.m','get_timestep_Xwater');{only outflow}]]]
        {method} + reduction_factor_in  [[[matlab:matlab.desktop.editor.openAndGoToFunction('C:\thin\02_Code\Matlab\CryoGRID\202008_CryoGrid_NewOOP_GIT_CURRENT_THIN\modules\TIER_1_processes\WATER_FLUXES.m','reduction_factor_in');{No tooltip}]]]
        {method} + reduction_factor_out  [[[matlab:matlab.desktop.editor.openAndGoToFunction('C:\thin\02_Code\Matlab\CryoGRID\202008_CryoGrid_NewOOP_GIT_CURRENT_THIN\modules\TIER_1_processes\WATER_FLUXES.m','reduction_factor_out');{No tooltip}]]]
    }
    class WATER_FLUXES_LATERAL <<(H,#E6FFE6)>> [[matlab:matlab.desktop.editor.openAndGoToLine('C:\thin\02_Code\Matlab\CryoGRID\202008_CryoGrid_NewOOP_GIT_CURRENT_THIN\modules\TIER_1_processes\WATER_FLUXES_LATERAL.m',8);{No tooltip}]] {
        ---
        {method} + get_saturated_hardBottom_first_cell_lake_unfrozen  [[[matlab:matlab.desktop.editor.openAndGoToFunction('C:\thin\02_Code\Matlab\CryoGRID\202008_CryoGrid_NewOOP_GIT_CURRENT_THIN\modules\TIER_1_processes\WATER_FLUXES_LATERAL.m','get_saturated_hardBottom_first_cell_lake_unfrozen');{No tooltip}]]]
        {method} + get_saturated_hardBottom_first_cell_simple  [[[matlab:matlab.desktop.editor.openAndGoToFunction('C:\thin\02_Code\Matlab\CryoGRID\202008_CryoGrid_NewOOP_GIT_CURRENT_THIN\modules\TIER_1_processes\WATER_FLUXES_LATERAL.m','get_saturated_hardBottom_first_cell_simple');{No tooltip}]]]
        {method} + get_saturated_hardBottom_first_cell_snow  [[[matlab:matlab.desktop.editor.openAndGoToFunction('C:\thin\02_Code\Matlab\CryoGRID\202008_CryoGrid_NewOOP_GIT_CURRENT_THIN\modules\TIER_1_processes\WATER_FLUXES_LATERAL.m','get_saturated_hardBottom_first_cell_snow');{No tooltip}]]]
        {method} + get_saturated_hardBottom_first_cell_Xice  [[[matlab:matlab.desktop.editor.openAndGoToFunction('C:\thin\02_Code\Matlab\CryoGRID\202008_CryoGrid_NewOOP_GIT_CURRENT_THIN\modules\TIER_1_processes\WATER_FLUXES_LATERAL.m','get_saturated_hardBottom_first_cell_Xice');{No tooltip}]]]
        {method} + lateral3D_pull_water_general_aquifer_simple  [[[matlab:matlab.desktop.editor.openAndGoToFunction('C:\thin\02_Code\Matlab\CryoGRID\202008_CryoGrid_NewOOP_GIT_CURRENT_THIN\modules\TIER_1_processes\WATER_FLUXES_LATERAL.m','lateral3D_pull_water_general_aquifer_simple');{No tooltip}]]]
        {method} + lateral3D_pull_water_unconfined_aquifer_lake_unfrozen  [[[matlab:matlab.desktop.editor.openAndGoToFunction('C:\thin\02_Code\Matlab\CryoGRID\202008_CryoGrid_NewOOP_GIT_CURRENT_THIN\modules\TIER_1_processes\WATER_FLUXES_LATERAL.m','lateral3D_pull_water_unconfined_aquifer_lake_unfrozen');{No tooltip}]]]
        {method} + lateral3D_pull_water_unconfined_aquifer_simple  [[[matlab:matlab.desktop.editor.openAndGoToFunction('C:\thin\02_Code\Matlab\CryoGRID\202008_CryoGrid_NewOOP_GIT_CURRENT_THIN\modules\TIER_1_processes\WATER_FLUXES_LATERAL.m','lateral3D_pull_water_unconfined_aquifer_simple');{No tooltip}]]]
        {method} + lateral3D_pull_water_unconfined_aquifer_snow  [[[matlab:matlab.desktop.editor.openAndGoToFunction('C:\thin\02_Code\Matlab\CryoGRID\202008_CryoGrid_NewOOP_GIT_CURRENT_THIN\modules\TIER_1_processes\WATER_FLUXES_LATERAL.m','lateral3D_pull_water_unconfined_aquifer_snow');{No tooltip}]]]
        {method} + lateral3D_pull_water_unconfined_aquifer_Xice  [[[matlab:matlab.desktop.editor.openAndGoToFunction('C:\thin\02_Code\Matlab\CryoGRID\202008_CryoGrid_NewOOP_GIT_CURRENT_THIN\modules\TIER_1_processes\WATER_FLUXES_LATERAL.m','lateral3D_pull_water_unconfined_aquifer_Xice');{No tooltip}]]]
        {method} + lateral3D_push_water_general_aquifer_simple  [[[matlab:matlab.desktop.editor.openAndGoToFunction('C:\thin\02_Code\Matlab\CryoGRID\202008_CryoGrid_NewOOP_GIT_CURRENT_THIN\modules\TIER_1_processes\WATER_FLUXES_LATERAL.m','lateral3D_push_water_general_aquifer_simple');{move bottom up and allocate excess water to next cell}]]]
        {method} + lateral3D_push_water_unconfined_aquifer_lake_unfrozen  [[[matlab:matlab.desktop.editor.openAndGoToFunction('C:\thin\02_Code\Matlab\CryoGRID\202008_CryoGrid_NewOOP_GIT_CURRENT_THIN\modules\TIER_1_processes\WATER_FLUXES_LATERAL.m','lateral3D_push_water_unconfined_aquifer_lake_unfrozen');{move bottom up and allocate excess water to next cell}]]]
        {method} + lateral3D_push_water_unconfined_aquifer_simple  [[[matlab:matlab.desktop.editor.openAndGoToFunction('C:\thin\02_Code\Matlab\CryoGRID\202008_CryoGrid_NewOOP_GIT_CURRENT_THIN\modules\TIER_1_processes\WATER_FLUXES_LATERAL.m','lateral3D_push_water_unconfined_aquifer_simple');{move bottom up and allocate excess water to next cell}]]]
        {method} + lateral3D_push_water_unconfined_aquifer_snow  [[[matlab:matlab.desktop.editor.openAndGoToFunction('C:\thin\02_Code\Matlab\CryoGRID\202008_CryoGrid_NewOOP_GIT_CURRENT_THIN\modules\TIER_1_processes\WATER_FLUXES_LATERAL.m','lateral3D_push_water_unconfined_aquifer_snow');{move bottom up and allocate excess water to next cell}]]]
        {method} + lateral3D_push_water_unconfined_aquifer_snow2  [[[matlab:matlab.desktop.editor.openAndGoToFunction('C:\thin\02_Code\Matlab\CryoGRID\202008_CryoGrid_NewOOP_GIT_CURRENT_THIN\modules\TIER_1_processes\WATER_FLUXES_LATERAL.m','lateral3D_push_water_unconfined_aquifer_snow2');{move bottom up and allocate excess water to next cell}]]]
        {method} + lateral3D_push_water_unconfined_aquifer_Xice  [[[matlab:matlab.desktop.editor.openAndGoToFunction('C:\thin\02_Code\Matlab\CryoGRID\202008_CryoGrid_NewOOP_GIT_CURRENT_THIN\modules\TIER_1_processes\WATER_FLUXES_LATERAL.m','lateral3D_push_water_unconfined_aquifer_Xice');{move bottom up and allocate excess water to next cell}]]]
        {method} + lateral_push_remove_subsurfaceWater_simple  [[[matlab:matlab.desktop.editor.openAndGoToFunction('C:\thin\02_Code\Matlab\CryoGRID\202008_CryoGrid_NewOOP_GIT_CURRENT_THIN\modules\TIER_1_processes\WATER_FLUXES_LATERAL.m','lateral_push_remove_subsurfaceWater_simple');{No tooltip}]]]
        {method} + lateral_push_remove_surfaceWater_simple  [[[matlab:matlab.desktop.editor.openAndGoToFunction('C:\thin\02_Code\Matlab\CryoGRID\202008_CryoGrid_NewOOP_GIT_CURRENT_THIN\modules\TIER_1_processes\WATER_FLUXES_LATERAL.m','lateral_push_remove_surfaceWater_simple');{No tooltip}]]]
        {method} + lateral_push_remove_surfaceWater_Xice  [[[matlab:matlab.desktop.editor.openAndGoToFunction('C:\thin\02_Code\Matlab\CryoGRID\202008_CryoGrid_NewOOP_GIT_CURRENT_THIN\modules\TIER_1_processes\WATER_FLUXES_LATERAL.m','lateral_push_remove_surfaceWater_Xice');{No tooltip}]]]
        {method} + lateral_push_remove_water_seepage_simple  [[[matlab:matlab.desktop.editor.openAndGoToFunction('C:\thin\02_Code\Matlab\CryoGRID\202008_CryoGrid_NewOOP_GIT_CURRENT_THIN\modules\TIER_1_processes\WATER_FLUXES_LATERAL.m','lateral_push_remove_water_seepage_simple');{No tooltip}]]]
        {method} + lateral_push_remove_water_seepage_snow  [[[matlab:matlab.desktop.editor.openAndGoToFunction('C:\thin\02_Code\Matlab\CryoGRID\202008_CryoGrid_NewOOP_GIT_CURRENT_THIN\modules\TIER_1_processes\WATER_FLUXES_LATERAL.m','lateral_push_remove_water_seepage_snow');{No tooltip}]]]
        {method} + lateral_push_remove_water_seepage_Xice  [[[matlab:matlab.desktop.editor.openAndGoToFunction('C:\thin\02_Code\Matlab\CryoGRID\202008_CryoGrid_NewOOP_GIT_CURRENT_THIN\modules\TIER_1_processes\WATER_FLUXES_LATERAL.m','lateral_push_remove_water_seepage_Xice');{No tooltip}]]]
        {method} + lateral_push_water_reservoir_lake_unfrozen  [[[matlab:matlab.desktop.editor.openAndGoToFunction('C:\thin\02_Code\Matlab\CryoGRID\202008_CryoGrid_NewOOP_GIT_CURRENT_THIN\modules\TIER_1_processes\WATER_FLUXES_LATERAL.m','lateral_push_water_reservoir_lake_unfrozen');{water removed and added instantaneously}]]]
        {method} + lateral_push_water_reservoir_RichardsEq_Xice  [[[matlab:matlab.desktop.editor.openAndGoToFunction('C:\thin\02_Code\Matlab\CryoGRID\202008_CryoGrid_NewOOP_GIT_CURRENT_THIN\modules\TIER_1_processes\WATER_FLUXES_LATERAL.m','lateral_push_water_reservoir_RichardsEq_Xice');{No tooltip}]]]
        {method} + lateral_push_water_reservoir_simple  [[[matlab:matlab.desktop.editor.openAndGoToFunction('C:\thin\02_Code\Matlab\CryoGRID\202008_CryoGrid_NewOOP_GIT_CURRENT_THIN\modules\TIER_1_processes\WATER_FLUXES_LATERAL.m','lateral_push_water_reservoir_simple');{No tooltip}]]]
        {method} + lateral_push_water_reservoir_snow  [[[matlab:matlab.desktop.editor.openAndGoToFunction('C:\thin\02_Code\Matlab\CryoGRID\202008_CryoGrid_NewOOP_GIT_CURRENT_THIN\modules\TIER_1_processes\WATER_FLUXES_LATERAL.m','lateral_push_water_reservoir_snow');{No tooltip}]]]
        {method} + lateral_push_water_reservoir_Xice  [[[matlab:matlab.desktop.editor.openAndGoToFunction('C:\thin\02_Code\Matlab\CryoGRID\202008_CryoGrid_NewOOP_GIT_CURRENT_THIN\modules\TIER_1_processes\WATER_FLUXES_LATERAL.m','lateral_push_water_reservoir_Xice');{No tooltip}]]]
    }
    BASE <|-- AIR_CONVECTION
    BASE <|-- BGC_CLM4
    BASE <|-- FREEZE_CURVE
    BASE <|-- HEAT_CONDUCTION
    BASE <|-- HEAT_FLUXES_LATERAL
    BASE <|-- INITIALIZE
    BASE <|-- LAKE
    BASE <|-- REGRID
    BASE <|-- SALT
    BASE <|-- SEB
    BASE <|-- SNOW
    BASE <|-- SNOW_FLUXES_LATERAL
    BASE <|-- SOIL_GAS
    BASE <|-- WATER_FLUXES
    BASE <|-- WATER_FLUXES_LATERAL
@enduml
